<?xml version="1.0" encoding="UTF-8" standalone="no"?><svg xmlns="http://www.w3.org/2000/svg" xmlns:xlink="http://www.w3.org/1999/xlink" contentStyleType="text/css" height="342px" preserveAspectRatio="none" style="width:590px;height:342px;background:#FFFFFF;" version="1.1" viewBox="0 0 590 342" width="590px" zoomAndPan="magnify"><defs/><g><!--MD5=[7fd4401f5c5cb0e3d029c879cad30c04]
class Animal--><g id="elem_Animal"><rect codeLine="2" fill="#F1F1F1" height="219.6113" id="Animal" rx="2.5" ry="2.5" style="stroke:#181818;stroke-width:0.5;" width="162" x="216.5" y="7"/><ellipse cx="269.75" cy="23" fill="#ADD1B2" rx="11" ry="11" style="stroke:#181818;stroke-width:1.0;"/><path d="M269.8594,18.5313 Q268.9375,18.5313 268.2031,18.8438 Q267.4844,19.1563 266.9844,19.75 Q266.4844,20.3281 266.2031,21.2031 Q265.9375,22.0781 265.9375,23.1719 Q265.9375,24.6094 266.375,25.6563 Q266.8281,26.7031 267.6719,27.25 Q268.5313,27.7969 269.8438,27.7969 Q270.625,27.7969 271.3125,27.6719 Q272.0156,27.5313 273.0156,27.2188 L273.0156,29.0938 Q272.1563,29.4219 271.3906,29.5469 Q270.6406,29.6719 269.625,29.6719 Q267.7031,29.6719 266.3906,28.875 Q265.0938,28.0625 264.4375,26.5938 Q263.7813,25.1094 263.7813,23.1406 Q263.7813,21.7188 264.1719,20.5469 Q264.5781,19.3594 265.3594,18.4844 Q266.1406,17.6094 267.2813,17.1406 Q268.4219,16.6563 269.8906,16.6563 Q270.8438,16.6563 271.7344,16.8594 Q272.6406,17.0469 273.5781,17.5156 L272.75,19.2969 Q271.9688,18.9219 271.3125,18.7344 Q270.6563,18.5313 269.8594,18.5313 Z " fill="#000000"/><text fill="#000000" font-family="sans-serif" font-size="14" lengthAdjust="spacing" textLength="47" x="290.25" y="28.432">Animal</text><line style="stroke:#181818;stroke-width:0.5;" x1="217.5" x2="377.5" y1="39" y2="39"/><rect fill="none" height="6" style="stroke:#C82930;stroke-width:1.0;" width="6" x="224.5" y="51.034"/><text fill="#000000" font-family="sans-serif" font-size="14" lengthAdjust="spacing" textLength="86" x="236.5" y="57.9659">name: string</text><rect fill="none" height="6" style="stroke:#C82930;stroke-width:1.0;" width="6" x="224.5" y="70.1019"/><text fill="#000000" font-family="sans-serif" font-size="14" lengthAdjust="spacing" textLength="136" x="236.5" y="77.0339">numberOfLegs: uint</text><line style="stroke:#181818;stroke-width:0.5;" x1="217.5" x2="377.5" y1="85.1358" y2="85.1358"/><ellipse cx="227.5" cy="100.1698" fill="#84BE84" rx="3" ry="3" style="stroke:#038048;stroke-width:1.0;"/><text fill="#000000" font-family="sans-serif" font-size="14" lengthAdjust="spacing" textLength="74" x="236.5" y="104.1018">walk(): void</text><ellipse cx="227.5" cy="119.2377" fill="#84BE84" rx="3" ry="3" style="stroke:#038048;stroke-width:1.0;"/><text fill="#000000" font-family="sans-serif" font-size="14" lengthAdjust="spacing" textLength="68" x="236.5" y="123.1697">run(): void</text><ellipse cx="227.5" cy="138.3056" fill="#84BE84" rx="3" ry="3" style="stroke:#038048;stroke-width:1.0;"/><text fill="#000000" font-family="sans-serif" font-size="14" lengthAdjust="spacing" textLength="80" x="236.5" y="142.2376">crawl(): void</text><ellipse cx="227.5" cy="157.3735" fill="#84BE84" rx="3" ry="3" style="stroke:#038048;stroke-width:1.0;"/><text fill="#000000" font-family="sans-serif" font-size="14" lengthAdjust="spacing" textLength="66" x="236.5" y="161.3055">dig(): void</text><ellipse cx="227.5" cy="176.4415" fill="#84BE84" rx="3" ry="3" style="stroke:#038048;stroke-width:1.0;"/><text fill="#000000" font-family="sans-serif" font-size="14" lengthAdjust="spacing" textLength="108" x="236.5" y="180.3734">playFetch(): void</text><ellipse cx="227.5" cy="195.5094" fill="#84BE84" rx="3" ry="3" style="stroke:#038048;stroke-width:1.0;"/><text fill="#000000" font-family="sans-serif" font-size="14" lengthAdjust="spacing" textLength="79" x="236.5" y="199.4414">swim(): void</text><ellipse cx="227.5" cy="214.5773" fill="#84BE84" rx="3" ry="3" style="stroke:#038048;stroke-width:1.0;"/><text fill="#000000" font-family="sans-serif" font-size="14" lengthAdjust="spacing" textLength="89" x="236.5" y="218.5093">breath(): void</text></g><!--MD5=[454ed48f055567edc734f170f61b4daf]
class Dog--><g id="elem_Dog"><rect codeLine="14" fill="#F1F1F1" height="48" id="Dog" rx="2.5" ry="2.5" style="stroke:#181818;stroke-width:0.5;" width="59" x="7" y="287"/><ellipse cx="22" cy="303" fill="#ADD1B2" rx="11" ry="11" style="stroke:#181818;stroke-width:1.0;"/><path d="M22.1094,298.5313 Q21.1875,298.5313 20.4531,298.8438 Q19.7344,299.1563 19.2344,299.75 Q18.7344,300.3281 18.4531,301.2031 Q18.1875,302.0781 18.1875,303.1719 Q18.1875,304.6094 18.625,305.6563 Q19.0781,306.7031 19.9219,307.25 Q20.7813,307.7969 22.0938,307.7969 Q22.875,307.7969 23.5625,307.6719 Q24.2656,307.5313 25.2656,307.2188 L25.2656,309.0938 Q24.4063,309.4219 23.6406,309.5469 Q22.8906,309.6719 21.875,309.6719 Q19.9531,309.6719 18.6406,308.875 Q17.3438,308.0625 16.6875,306.5938 Q16.0313,305.1094 16.0313,303.1406 Q16.0313,301.7188 16.4219,300.5469 Q16.8281,299.3594 17.6094,298.4844 Q18.3906,297.6094 19.5313,297.1406 Q20.6719,296.6563 22.1406,296.6563 Q23.0938,296.6563 23.9844,296.8594 Q24.8906,297.0469 25.8281,297.5156 L25,299.2969 Q24.2188,298.9219 23.5625,298.7344 Q22.9063,298.5313 22.1094,298.5313 Z " fill="#000000"/><text fill="#000000" font-family="sans-serif" font-size="14" lengthAdjust="spacing" textLength="27" x="36" y="308.432">Dog</text><line style="stroke:#181818;stroke-width:0.5;" x1="8" x2="65" y1="319" y2="319"/><line style="stroke:#181818;stroke-width:0.5;" x1="8" x2="65" y1="327" y2="327"/></g><!--MD5=[fbb341b7a3bace498eb6b2ae3db12849]
class Seal--><g id="elem_Seal"><rect codeLine="18" fill="#F1F1F1" height="48" id="Seal" rx="2.5" ry="2.5" style="stroke:#181818;stroke-width:0.5;" width="60" x="101.5" y="287"/><ellipse cx="116.5" cy="303" fill="#ADD1B2" rx="11" ry="11" style="stroke:#181818;stroke-width:1.0;"/><path d="M116.6094,298.5313 Q115.6875,298.5313 114.9531,298.8438 Q114.2344,299.1563 113.7344,299.75 Q113.2344,300.3281 112.9531,301.2031 Q112.6875,302.0781 112.6875,303.1719 Q112.6875,304.6094 113.125,305.6563 Q113.5781,306.7031 114.4219,307.25 Q115.2813,307.7969 116.5938,307.7969 Q117.375,307.7969 118.0625,307.6719 Q118.7656,307.5313 119.7656,307.2188 L119.7656,309.0938 Q118.9063,309.4219 118.1406,309.5469 Q117.3906,309.6719 116.375,309.6719 Q114.4531,309.6719 113.1406,308.875 Q111.8438,308.0625 111.1875,306.5938 Q110.5313,305.1094 110.5313,303.1406 Q110.5313,301.7188 110.9219,300.5469 Q111.3281,299.3594 112.1094,298.4844 Q112.8906,297.6094 114.0313,297.1406 Q115.1719,296.6563 116.6406,296.6563 Q117.5938,296.6563 118.4844,296.8594 Q119.3906,297.0469 120.3281,297.5156 L119.5,299.2969 Q118.7188,298.9219 118.0625,298.7344 Q117.4063,298.5313 116.6094,298.5313 Z " fill="#000000"/><text fill="#000000" font-family="sans-serif" font-size="14" lengthAdjust="spacing" textLength="28" x="130.5" y="308.432">Seal</text><line style="stroke:#181818;stroke-width:0.5;" x1="102.5" x2="160.5" y1="319" y2="319"/><line style="stroke:#181818;stroke-width:0.5;" x1="102.5" x2="160.5" y1="327" y2="327"/></g><!--MD5=[c3494489cb2f82461efb5b3f19f17592]
class WildSeal--><g id="elem_WildSeal"><rect codeLine="22" fill="#F1F1F1" height="48" id="WildSeal" rx="2.5" ry="2.5" style="stroke:#181818;stroke-width:0.5;" width="90" x="196.5" y="287"/><ellipse cx="211.5" cy="303" fill="#ADD1B2" rx="11" ry="11" style="stroke:#181818;stroke-width:1.0;"/><path d="M211.6094,298.5313 Q210.6875,298.5313 209.9531,298.8438 Q209.2344,299.1563 208.7344,299.75 Q208.2344,300.3281 207.9531,301.2031 Q207.6875,302.0781 207.6875,303.1719 Q207.6875,304.6094 208.125,305.6563 Q208.5781,306.7031 209.4219,307.25 Q210.2813,307.7969 211.5938,307.7969 Q212.375,307.7969 213.0625,307.6719 Q213.7656,307.5313 214.7656,307.2188 L214.7656,309.0938 Q213.9063,309.4219 213.1406,309.5469 Q212.3906,309.6719 211.375,309.6719 Q209.4531,309.6719 208.1406,308.875 Q206.8438,308.0625 206.1875,306.5938 Q205.5313,305.1094 205.5313,303.1406 Q205.5313,301.7188 205.9219,300.5469 Q206.3281,299.3594 207.1094,298.4844 Q207.8906,297.6094 209.0313,297.1406 Q210.1719,296.6563 211.6406,296.6563 Q212.5938,296.6563 213.4844,296.8594 Q214.3906,297.0469 215.3281,297.5156 L214.5,299.2969 Q213.7188,298.9219 213.0625,298.7344 Q212.4063,298.5313 211.6094,298.5313 Z " fill="#000000"/><text fill="#000000" font-family="sans-serif" font-size="14" lengthAdjust="spacing" textLength="58" x="225.5" y="308.432">WildSeal</text><line style="stroke:#181818;stroke-width:0.5;" x1="197.5" x2="285.5" y1="319" y2="319"/><line style="stroke:#181818;stroke-width:0.5;" x1="197.5" x2="285.5" y1="327" y2="327"/></g><!--MD5=[46c97a57589ae0235a90fa1765a6f2f5]
class Mole--><g id="elem_Mole"><rect codeLine="26" fill="#F1F1F1" height="48" id="Mole" rx="2.5" ry="2.5" style="stroke:#181818;stroke-width:0.5;" width="65" x="322" y="287"/><ellipse cx="337" cy="303" fill="#ADD1B2" rx="11" ry="11" style="stroke:#181818;stroke-width:1.0;"/><path d="M337.1094,298.5313 Q336.1875,298.5313 335.4531,298.8438 Q334.7344,299.1563 334.2344,299.75 Q333.7344,300.3281 333.4531,301.2031 Q333.1875,302.0781 333.1875,303.1719 Q333.1875,304.6094 333.625,305.6563 Q334.0781,306.7031 334.9219,307.25 Q335.7813,307.7969 337.0938,307.7969 Q337.875,307.7969 338.5625,307.6719 Q339.2656,307.5313 340.2656,307.2188 L340.2656,309.0938 Q339.4063,309.4219 338.6406,309.5469 Q337.8906,309.6719 336.875,309.6719 Q334.9531,309.6719 333.6406,308.875 Q332.3438,308.0625 331.6875,306.5938 Q331.0313,305.1094 331.0313,303.1406 Q331.0313,301.7188 331.4219,300.5469 Q331.8281,299.3594 332.6094,298.4844 Q333.3906,297.6094 334.5313,297.1406 Q335.6719,296.6563 337.1406,296.6563 Q338.0938,296.6563 338.9844,296.8594 Q339.8906,297.0469 340.8281,297.5156 L340,299.2969 Q339.2188,298.9219 338.5625,298.7344 Q337.9063,298.5313 337.1094,298.5313 Z " fill="#000000"/><text fill="#000000" font-family="sans-serif" font-size="14" lengthAdjust="spacing" textLength="33" x="351" y="308.432">Mole</text><line style="stroke:#181818;stroke-width:0.5;" x1="323" x2="386" y1="319" y2="319"/><line style="stroke:#181818;stroke-width:0.5;" x1="323" x2="386" y1="327" y2="327"/></g><!--MD5=[8d10b9619f233caeee54837354dd5717]
class Cat--><g id="elem_Cat"><rect codeLine="30" fill="#F1F1F1" height="48" id="Cat" rx="2.5" ry="2.5" style="stroke:#181818;stroke-width:0.5;" width="54" x="422.5" y="287"/><ellipse cx="437.5" cy="303" fill="#ADD1B2" rx="11" ry="11" style="stroke:#181818;stroke-width:1.0;"/><path d="M437.6094,298.5313 Q436.6875,298.5313 435.9531,298.8438 Q435.2344,299.1563 434.7344,299.75 Q434.2344,300.3281 433.9531,301.2031 Q433.6875,302.0781 433.6875,303.1719 Q433.6875,304.6094 434.125,305.6563 Q434.5781,306.7031 435.4219,307.25 Q436.2813,307.7969 437.5938,307.7969 Q438.375,307.7969 439.0625,307.6719 Q439.7656,307.5313 440.7656,307.2188 L440.7656,309.0938 Q439.9063,309.4219 439.1406,309.5469 Q438.3906,309.6719 437.375,309.6719 Q435.4531,309.6719 434.1406,308.875 Q432.8438,308.0625 432.1875,306.5938 Q431.5313,305.1094 431.5313,303.1406 Q431.5313,301.7188 431.9219,300.5469 Q432.3281,299.3594 433.1094,298.4844 Q433.8906,297.6094 435.0313,297.1406 Q436.1719,296.6563 437.6406,296.6563 Q438.5938,296.6563 439.4844,296.8594 Q440.3906,297.0469 441.3281,297.5156 L440.5,299.2969 Q439.7188,298.9219 439.0625,298.7344 Q438.4063,298.5313 437.6094,298.5313 Z " fill="#000000"/><text fill="#000000" font-family="sans-serif" font-size="14" lengthAdjust="spacing" textLength="22" x="451.5" y="308.432">Cat</text><line style="stroke:#181818;stroke-width:0.5;" x1="423.5" x2="475.5" y1="319" y2="319"/><line style="stroke:#181818;stroke-width:0.5;" x1="423.5" x2="475.5" y1="327" y2="327"/></g><!--MD5=[d5d7bc467ba7a0813dc5cfd10b0b31e3]
class Worm--><g id="elem_Worm"><rect codeLine="34" fill="#F1F1F1" height="48" id="Worm" rx="2.5" ry="2.5" style="stroke:#181818;stroke-width:0.5;" width="72" x="511.5" y="287"/><ellipse cx="526.5" cy="303" fill="#ADD1B2" rx="11" ry="11" style="stroke:#181818;stroke-width:1.0;"/><path d="M526.6094,298.5313 Q525.6875,298.5313 524.9531,298.8438 Q524.2344,299.1563 523.7344,299.75 Q523.2344,300.3281 522.9531,301.2031 Q522.6875,302.0781 522.6875,303.1719 Q522.6875,304.6094 523.125,305.6563 Q523.5781,306.7031 524.4219,307.25 Q525.2813,307.7969 526.5938,307.7969 Q527.375,307.7969 528.0625,307.6719 Q528.7656,307.5313 529.7656,307.2188 L529.7656,309.0938 Q528.9063,309.4219 528.1406,309.5469 Q527.3906,309.6719 526.375,309.6719 Q524.4531,309.6719 523.1406,308.875 Q521.8438,308.0625 521.1875,306.5938 Q520.5313,305.1094 520.5313,303.1406 Q520.5313,301.7188 520.9219,300.5469 Q521.3281,299.3594 522.1094,298.4844 Q522.8906,297.6094 524.0313,297.1406 Q525.1719,296.6563 526.6406,296.6563 Q527.5938,296.6563 528.4844,296.8594 Q529.3906,297.0469 530.3281,297.5156 L529.5,299.2969 Q528.7188,298.9219 528.0625,298.7344 Q527.4063,298.5313 526.6094,298.5313 Z " fill="#000000"/><text fill="#000000" font-family="sans-serif" font-size="14" lengthAdjust="spacing" textLength="40" x="540.5" y="308.432">Worm</text><line style="stroke:#181818;stroke-width:0.5;" x1="512.5" x2="582.5" y1="319" y2="319"/><line style="stroke:#181818;stroke-width:0.5;" x1="512.5" x2="582.5" y1="327" y2="327"/></g><!--MD5=[5037e5108ae860e34ac250b7d2b84c09]
reverse link Animal to Dog--><g id="link_Animal_Dog"><path codeLine="38" d="M199.23,190.29 C151.89,225.11 98.52,264.38 66.21,288.15 " fill="none" id="Animal-backto-Dog" style="stroke:#181818;stroke-width:1.0;"/><polygon fill="none" points="194.87,184.81,215.13,178.59,203.17,196.08,194.87,184.81" style="stroke:#181818;stroke-width:1.0;"/></g><!--MD5=[4139838dbfe80f78f4be30c0bd7ad261]
reverse link Animal to Mole--><g id="link_Animal_Mole"><path codeLine="39" d="M336.1,248.02 C340.44,262.65 344.43,276.08 347.57,286.66 " fill="none" id="Animal-backto-Mole" style="stroke:#181818;stroke-width:1.0;"/><polygon fill="none" points="329.41,250.08,330.43,228.91,342.83,246.09,329.41,250.08" style="stroke:#181818;stroke-width:1.0;"/></g><!--MD5=[29afdbb58cca2b953b6b88505d3bed3f]
reverse link Animal to Cat--><g id="link_Animal_Cat"><path codeLine="40" d="M392.04,237.42 C406.84,256.12 420.64,273.55 431.01,286.64 " fill="none" id="Animal-backto-Cat" style="stroke:#181818;stroke-width:1.0;"/><polygon fill="none" points="386.71,241.96,379.78,221.93,397.68,233.27,386.71,241.96" style="stroke:#181818;stroke-width:1.0;"/></g><!--MD5=[3c6202b33de307532af3ab70f3a2b831]
reverse link Animal to Worm--><g id="link_Animal_Worm"><path codeLine="41" d="M395.65,193.38 C439.03,226.7 486.95,263.49 517.12,286.67 " fill="none" id="Animal-backto-Worm" style="stroke:#181818;stroke-width:1.0;"/><polygon fill="none" points="391.47,198.99,379.87,181.26,399.99,187.89,391.47,198.99" style="stroke:#181818;stroke-width:1.0;"/></g><!--MD5=[f0590d3c0e2cf06134e17c07cfdd93d0]
reverse link Animal to Seal--><g id="link_Animal_Seal"><path codeLine="42" d="M202.19,228.24 C183.07,250.35 164.85,271.43 151.69,286.65 " fill="none" id="Animal-backto-Seal" style="stroke:#181818;stroke-width:1.0;"/><polygon fill="none" points="196.84,223.73,215.21,213.18,207.43,232.88,196.84,223.73" style="stroke:#181818;stroke-width:1.0;"/></g><!--MD5=[b6e4f227b67f6818466c48ce3fd007c1]
reverse link Animal to WildSeal--><g id="link_Animal_WildSeal"><path codeLine="43" d="M259.58,248.02 C255.31,262.65 251.39,276.08 248.31,286.66 " fill="none" id="Animal-backto-WildSeal" style="stroke:#181818;stroke-width:1.0;"/><polygon fill="none" points="252.83,246.15,265.15,228.91,266.27,250.07,252.83,246.15" style="stroke:#181818;stroke-width:1.0;"/></g><!--MD5=[0240a909ee06a93dd00e7d7d7e89c82c]
@startuml

class Animal {
    -name: string
    -numberOfLegs: uint
    +walk(): void
    +run(): void
    +crawl(): void
    +dig(): void
    +playFetch(): void
    +swim(): void
    +breath(): void
}

class Dog {

}

class Seal {

}

class WildSeal {

}

class Mole {

}

class Cat {

}

class Worm {

}

Animal <|- - Dog
Animal <|- - Mole
Animal <|- - Cat
Animal <|- - Worm
Animal <|- - Seal
Animal <|- - WildSeal

@enduml

PlantUML version 1.2022.7(Mon Aug 22 18:01:30 BST 2022)
(GPL source distribution)
Java Runtime: OpenJDK Runtime Environment
JVM: OpenJDK 64-Bit Server VM
Default Encoding: UTF-8
Language: en
Country: GB
--></g></svg>