<?xml version="1.0" encoding="UTF-8" standalone="no"?><svg xmlns="http://www.w3.org/2000/svg" xmlns:xlink="http://www.w3.org/1999/xlink" contentStyleType="text/css" height="525px" preserveAspectRatio="none" style="width:994px;height:525px;background:#FFFFFF;" version="1.1" viewBox="0 0 994 525" width="994px" zoomAndPan="magnify"><defs/><g><!--MD5=[1f03944efe3334577da183320bd0cef9]
class IName--><g id="elem_IName"><rect codeLine="2" fill="#F1F1F1" height="86.1358" id="IName" rx="2.5" ry="2.5" style="stroke:#181818;stroke-width:0.5;" width="216" x="7" y="26"/><ellipse cx="89.75" cy="42" fill="#B4A7E5" rx="11" ry="11" style="stroke:#181818;stroke-width:1.0;"/><path d="M91.8438,48.5 L86.9375,48.5 L86.9375,47.125 L88.3594,46.8125 L88.3594,37.5313 L86.9375,37.1875 L86.9375,35.8281 L91.8438,35.8281 L91.8438,37.1875 L90.4219,37.5313 L90.4219,46.8125 L91.8438,47.125 L91.8438,48.5 Z " fill="#000000"/><text fill="#000000" font-family="sans-serif" font-size="14" font-style="italic" lengthAdjust="spacing" textLength="42" x="110.25" y="47.432">IName</text><line style="stroke:#181818;stroke-width:0.5;" x1="8" x2="222" y1="58" y2="58"/><ellipse cx="18" cy="73.034" fill="none" rx="3" ry="3" style="stroke:#038048;stroke-width:1.0;"/><text fill="#000000" font-family="sans-serif" font-size="14" lengthAdjust="spacing" textLength="86" x="27" y="76.9659">name: string</text><ellipse cx="18" cy="92.1019" fill="none" rx="3" ry="3" style="stroke:#038048;stroke-width:1.0;"/><text fill="#000000" font-family="sans-serif" font-size="14" lengthAdjust="spacing" textLength="190" x="27" y="96.0339">numberOfAppendages: uint</text><line style="stroke:#181818;stroke-width:0.5;" x1="8" x2="222" y1="104.1358" y2="104.1358"/></g><!--MD5=[2425b479da93eea62ee9411840bbe199]
class ICrawl--><g id="elem_ICrawl"><rect codeLine="7" fill="#F1F1F1" height="67.0679" id="ICrawl" rx="2.5" ry="2.5" style="stroke:#181818;stroke-width:0.5;" width="106" x="591" y="35.5"/><ellipse cx="620.85" cy="51.5" fill="#B4A7E5" rx="11" ry="11" style="stroke:#181818;stroke-width:1.0;"/><path d="M622.9438,58 L618.0375,58 L618.0375,56.625 L619.4594,56.3125 L619.4594,47.0313 L618.0375,46.6875 L618.0375,45.3281 L622.9438,45.3281 L622.9438,46.6875 L621.5219,47.0313 L621.5219,56.3125 L622.9438,56.625 L622.9438,58 Z " fill="#000000"/><text fill="#000000" font-family="sans-serif" font-size="14" font-style="italic" lengthAdjust="spacing" textLength="41" x="638.15" y="56.932">ICrawl</text><line style="stroke:#181818;stroke-width:0.5;" x1="592" x2="696" y1="67.5" y2="67.5"/><line style="stroke:#181818;stroke-width:0.5;" x1="592" x2="696" y1="75.5" y2="75.5"/><ellipse cx="602" cy="90.534" fill="#84BE84" rx="3" ry="3" style="stroke:#038048;stroke-width:1.0;"/><text fill="#000000" font-family="sans-serif" font-size="14" lengthAdjust="spacing" textLength="80" x="611" y="94.4659">crawl(): void</text></g><!--MD5=[aef8f0136d47cdce57b2d5444eecc2a5]
class IBreath--><g id="elem_IBreath"><rect codeLine="11" fill="#F1F1F1" height="67.0679" id="IBreath" rx="2.5" ry="2.5" style="stroke:#181818;stroke-width:0.5;" width="115" x="732.5" y="35.5"/><ellipse cx="763.7" cy="51.5" fill="#B4A7E5" rx="11" ry="11" style="stroke:#181818;stroke-width:1.0;"/><path d="M765.7938,58 L760.8875,58 L760.8875,56.625 L762.3094,56.3125 L762.3094,47.0313 L760.8875,46.6875 L760.8875,45.3281 L765.7938,45.3281 L765.7938,46.6875 L764.3719,47.0313 L764.3719,56.3125 L765.7938,56.625 L765.7938,58 Z " fill="#000000"/><text fill="#000000" font-family="sans-serif" font-size="14" font-style="italic" lengthAdjust="spacing" textLength="47" x="781.3" y="56.932">IBreath</text><line style="stroke:#181818;stroke-width:0.5;" x1="733.5" x2="846.5" y1="67.5" y2="67.5"/><line style="stroke:#181818;stroke-width:0.5;" x1="733.5" x2="846.5" y1="75.5" y2="75.5"/><ellipse cx="743.5" cy="90.534" fill="#84BE84" rx="3" ry="3" style="stroke:#038048;stroke-width:1.0;"/><text fill="#000000" font-family="sans-serif" font-size="14" lengthAdjust="spacing" textLength="89" x="752.5" y="94.4659">breath(): void</text></g><!--MD5=[ce228ceba3313844580eb3510a265beb]
class ISwim--><g id="elem_ISwim"><rect codeLine="15" fill="#F1F1F1" height="67.0679" id="ISwim" rx="2.5" ry="2.5" style="stroke:#181818;stroke-width:0.5;" width="105" x="882.5" y="35.5"/><ellipse cx="913.25" cy="51.5" fill="#B4A7E5" rx="11" ry="11" style="stroke:#181818;stroke-width:1.0;"/><path d="M915.3438,58 L910.4375,58 L910.4375,56.625 L911.8594,56.3125 L911.8594,47.0313 L910.4375,46.6875 L910.4375,45.3281 L915.3438,45.3281 L915.3438,46.6875 L913.9219,47.0313 L913.9219,56.3125 L915.3438,56.625 L915.3438,58 Z " fill="#000000"/><text fill="#000000" font-family="sans-serif" font-size="14" font-style="italic" lengthAdjust="spacing" textLength="38" x="930.75" y="56.932">ISwim</text><line style="stroke:#181818;stroke-width:0.5;" x1="883.5" x2="986.5" y1="67.5" y2="67.5"/><line style="stroke:#181818;stroke-width:0.5;" x1="883.5" x2="986.5" y1="75.5" y2="75.5"/><ellipse cx="893.5" cy="90.534" fill="#84BE84" rx="3" ry="3" style="stroke:#038048;stroke-width:1.0;"/><text fill="#000000" font-family="sans-serif" font-size="14" lengthAdjust="spacing" textLength="79" x="902.5" y="94.4659">swim(): void</text></g><!--MD5=[738c1a881f896961c6a9b0af1949a3bc]
class IFetch--><g id="elem_IFetch"><rect codeLine="19" fill="#F1F1F1" height="67.0679" id="IFetch" rx="2.5" ry="2.5" style="stroke:#181818;stroke-width:0.5;" width="104" x="883" y="229"/><ellipse cx="913.3" cy="245" fill="#B4A7E5" rx="11" ry="11" style="stroke:#181818;stroke-width:1.0;"/><path d="M915.3938,251.5 L910.4875,251.5 L910.4875,250.125 L911.9094,249.8125 L911.9094,240.5313 L910.4875,240.1875 L910.4875,238.8281 L915.3938,238.8281 L915.3938,240.1875 L913.9719,240.5313 L913.9719,249.8125 L915.3938,250.125 L915.3938,251.5 Z " fill="#000000"/><text fill="#000000" font-family="sans-serif" font-size="14" font-style="italic" lengthAdjust="spacing" textLength="38" x="930.7" y="250.432">IFetch</text><line style="stroke:#181818;stroke-width:0.5;" x1="884" x2="986" y1="261" y2="261"/><line style="stroke:#181818;stroke-width:0.5;" x1="884" x2="986" y1="269" y2="269"/><ellipse cx="894" cy="284.034" fill="#84BE84" rx="3" ry="3" style="stroke:#038048;stroke-width:1.0;"/><text fill="#000000" font-family="sans-serif" font-size="14" lengthAdjust="spacing" textLength="78" x="903" y="287.9659">fetch(): void</text></g><!--MD5=[9b7d1659afa3add92508730b6cb6c99d]
class IDigger--><g id="elem_IDigger"><rect codeLine="23" fill="#F1F1F1" height="67.0679" id="IDigger" rx="2.5" ry="2.5" style="stroke:#181818;stroke-width:0.5;" width="92" x="598" y="229"/><ellipse cx="618.85" cy="245" fill="#B4A7E5" rx="11" ry="11" style="stroke:#181818;stroke-width:1.0;"/><path d="M620.9438,251.5 L616.0375,251.5 L616.0375,250.125 L617.4594,249.8125 L617.4594,240.5313 L616.0375,240.1875 L616.0375,238.8281 L620.9438,238.8281 L620.9438,240.1875 L619.5219,240.5313 L619.5219,249.8125 L620.9438,250.125 L620.9438,251.5 Z " fill="#000000"/><text fill="#000000" font-family="sans-serif" font-size="14" font-style="italic" lengthAdjust="spacing" textLength="47" x="634.15" y="250.432">IDigger</text><line style="stroke:#181818;stroke-width:0.5;" x1="599" x2="689" y1="261" y2="261"/><line style="stroke:#181818;stroke-width:0.5;" x1="599" x2="689" y1="269" y2="269"/><ellipse cx="609" cy="284.034" fill="#84BE84" rx="3" ry="3" style="stroke:#038048;stroke-width:1.0;"/><text fill="#000000" font-family="sans-serif" font-size="14" lengthAdjust="spacing" textLength="66" x="618" y="287.9659">dig(): void</text></g><!--MD5=[477f6168a827414e69ab4a56faa0a169]
class IMobile--><g id="elem_IMobile"><rect codeLine="27" fill="#F1F1F1" height="86.1358" id="IMobile" rx="2.5" ry="2.5" style="stroke:#181818;stroke-width:0.5;" width="100" x="733" y="219.5"/><ellipse cx="757" cy="235.5" fill="#B4A7E5" rx="11" ry="11" style="stroke:#181818;stroke-width:1.0;"/><path d="M759.0938,242 L754.1875,242 L754.1875,240.625 L755.6094,240.3125 L755.6094,231.0313 L754.1875,230.6875 L754.1875,229.3281 L759.0938,229.3281 L759.0938,230.6875 L757.6719,231.0313 L757.6719,240.3125 L759.0938,240.625 L759.0938,242 Z " fill="#000000"/><text fill="#000000" font-family="sans-serif" font-size="14" font-style="italic" lengthAdjust="spacing" textLength="48" x="773" y="240.932">IMobile</text><line style="stroke:#181818;stroke-width:0.5;" x1="734" x2="832" y1="251.5" y2="251.5"/><line style="stroke:#181818;stroke-width:0.5;" x1="734" x2="832" y1="259.5" y2="259.5"/><ellipse cx="744" cy="274.534" fill="#84BE84" rx="3" ry="3" style="stroke:#038048;stroke-width:1.0;"/><text fill="#000000" font-family="sans-serif" font-size="14" lengthAdjust="spacing" textLength="74" x="753" y="278.4659">walk(): void</text><ellipse cx="744" cy="293.6019" fill="#84BE84" rx="3" ry="3" style="stroke:#038048;stroke-width:1.0;"/><text fill="#000000" font-family="sans-serif" font-size="14" lengthAdjust="spacing" textLength="68" x="753" y="297.5339">run(): void</text></g><!--MD5=[454ed48f055567edc734f170f61b4daf]
class Dog--><g id="elem_Dog"><rect codeLine="32" fill="#F1F1F1" height="124.2717" id="Dog" rx="2.5" ry="2.5" style="stroke:#181818;stroke-width:0.5;" width="131" x="258.5" y="7"/><ellipse cx="306.25" cy="23" fill="#ADD1B2" rx="11" ry="11" style="stroke:#181818;stroke-width:1.0;"/><path d="M306.3594,18.5313 Q305.4375,18.5313 304.7031,18.8438 Q303.9844,19.1563 303.4844,19.75 Q302.9844,20.3281 302.7031,21.2031 Q302.4375,22.0781 302.4375,23.1719 Q302.4375,24.6094 302.875,25.6563 Q303.3281,26.7031 304.1719,27.25 Q305.0313,27.7969 306.3438,27.7969 Q307.125,27.7969 307.8125,27.6719 Q308.5156,27.5313 309.5156,27.2188 L309.5156,29.0938 Q308.6563,29.4219 307.8906,29.5469 Q307.1406,29.6719 306.125,29.6719 Q304.2031,29.6719 302.8906,28.875 Q301.5938,28.0625 300.9375,26.5938 Q300.2813,25.1094 300.2813,23.1406 Q300.2813,21.7188 300.6719,20.5469 Q301.0781,19.3594 301.8594,18.4844 Q302.6406,17.6094 303.7813,17.1406 Q304.9219,16.6563 306.3906,16.6563 Q307.3438,16.6563 308.2344,16.8594 Q309.1406,17.0469 310.0781,17.5156 L309.25,19.2969 Q308.4688,18.9219 307.8125,18.7344 Q307.1563,18.5313 306.3594,18.5313 Z " fill="#000000"/><text fill="#000000" font-family="sans-serif" font-size="14" lengthAdjust="spacing" textLength="27" x="326.75" y="28.432">Dog</text><line style="stroke:#181818;stroke-width:0.5;" x1="259.5" x2="388.5" y1="39" y2="39"/><rect fill="none" height="6" style="stroke:#C82930;stroke-width:1.0;" width="6" x="266.5" y="51.034"/><text fill="#000000" font-family="sans-serif" font-size="14" lengthAdjust="spacing" textLength="91" x="278.5" y="57.9659">name: IName</text><ellipse cx="269.5" cy="73.1019" fill="none" rx="3" ry="3" style="stroke:#038048;stroke-width:1.0;"/><text fill="#000000" font-family="sans-serif" font-size="14" lengthAdjust="spacing" textLength="105" x="278.5" y="77.0339">mobile: IMobile</text><ellipse cx="269.5" cy="92.1698" fill="none" rx="3" ry="3" style="stroke:#038048;stroke-width:1.0;"/><text fill="#000000" font-family="sans-serif" font-size="14" lengthAdjust="spacing" textLength="83" x="278.5" y="96.1018">fetch: IFetch</text><ellipse cx="269.5" cy="111.2377" fill="none" rx="3" ry="3" style="stroke:#038048;stroke-width:1.0;"/><text fill="#000000" font-family="sans-serif" font-size="14" lengthAdjust="spacing" textLength="104" x="278.5" y="115.1697">digger: IDigger</text><line style="stroke:#181818;stroke-width:0.5;" x1="259.5" x2="388.5" y1="123.2717" y2="123.2717"/></g><!--MD5=[8d10b9619f233caeee54837354dd5717]
class Cat--><g id="elem_Cat"><rect codeLine="39" fill="#F1F1F1" height="86.1358" id="Cat" rx="2.5" ry="2.5" style="stroke:#181818;stroke-width:0.5;" width="131" x="424.5" y="26"/><ellipse cx="474.75" cy="42" fill="#ADD1B2" rx="11" ry="11" style="stroke:#181818;stroke-width:1.0;"/><path d="M474.8594,37.5313 Q473.9375,37.5313 473.2031,37.8438 Q472.4844,38.1563 471.9844,38.75 Q471.4844,39.3281 471.2031,40.2031 Q470.9375,41.0781 470.9375,42.1719 Q470.9375,43.6094 471.375,44.6563 Q471.8281,45.7031 472.6719,46.25 Q473.5313,46.7969 474.8438,46.7969 Q475.625,46.7969 476.3125,46.6719 Q477.0156,46.5313 478.0156,46.2188 L478.0156,48.0938 Q477.1563,48.4219 476.3906,48.5469 Q475.6406,48.6719 474.625,48.6719 Q472.7031,48.6719 471.3906,47.875 Q470.0938,47.0625 469.4375,45.5938 Q468.7813,44.1094 468.7813,42.1406 Q468.7813,40.7188 469.1719,39.5469 Q469.5781,38.3594 470.3594,37.4844 Q471.1406,36.6094 472.2813,36.1406 Q473.4219,35.6563 474.8906,35.6563 Q475.8438,35.6563 476.7344,35.8594 Q477.6406,36.0469 478.5781,36.5156 L477.75,38.2969 Q476.9688,37.9219 476.3125,37.7344 Q475.6563,37.5313 474.8594,37.5313 Z " fill="#000000"/><text fill="#000000" font-family="sans-serif" font-size="14" lengthAdjust="spacing" textLength="22" x="495.25" y="47.432">Cat</text><line style="stroke:#181818;stroke-width:0.5;" x1="425.5" x2="554.5" y1="58" y2="58"/><rect fill="none" height="6" style="stroke:#C82930;stroke-width:1.0;" width="6" x="432.5" y="70.034"/><text fill="#000000" font-family="sans-serif" font-size="14" lengthAdjust="spacing" textLength="91" x="444.5" y="76.9659">name: IName</text><ellipse cx="435.5" cy="92.1019" fill="none" rx="3" ry="3" style="stroke:#038048;stroke-width:1.0;"/><text fill="#000000" font-family="sans-serif" font-size="14" lengthAdjust="spacing" textLength="105" x="444.5" y="96.0339">mobile: IMobile</text><line style="stroke:#181818;stroke-width:0.5;" x1="425.5" x2="554.5" y1="104.1358" y2="104.1358"/></g><!--MD5=[46c97a57589ae0235a90fa1765a6f2f5]
class Mole--><g id="elem_Mole"><rect codeLine="44" fill="#F1F1F1" height="105.2038" id="Mole" rx="2.5" ry="2.5" style="stroke:#181818;stroke-width:0.5;" width="130" x="50" y="210"/><ellipse cx="94.25" cy="226" fill="#ADD1B2" rx="11" ry="11" style="stroke:#181818;stroke-width:1.0;"/><path d="M94.3594,221.5313 Q93.4375,221.5313 92.7031,221.8438 Q91.9844,222.1563 91.4844,222.75 Q90.9844,223.3281 90.7031,224.2031 Q90.4375,225.0781 90.4375,226.1719 Q90.4375,227.6094 90.875,228.6563 Q91.3281,229.7031 92.1719,230.25 Q93.0313,230.7969 94.3438,230.7969 Q95.125,230.7969 95.8125,230.6719 Q96.5156,230.5313 97.5156,230.2188 L97.5156,232.0938 Q96.6563,232.4219 95.8906,232.5469 Q95.1406,232.6719 94.125,232.6719 Q92.2031,232.6719 90.8906,231.875 Q89.5938,231.0625 88.9375,229.5938 Q88.2813,228.1094 88.2813,226.1406 Q88.2813,224.7188 88.6719,223.5469 Q89.0781,222.3594 89.8594,221.4844 Q90.6406,220.6094 91.7813,220.1406 Q92.9219,219.6563 94.3906,219.6563 Q95.3438,219.6563 96.2344,219.8594 Q97.1406,220.0469 98.0781,220.5156 L97.25,222.2969 Q96.4688,221.9219 95.8125,221.7344 Q95.1563,221.5313 94.3594,221.5313 Z " fill="#000000"/><text fill="#000000" font-family="sans-serif" font-size="14" lengthAdjust="spacing" textLength="33" x="114.75" y="231.432">Mole</text><line style="stroke:#181818;stroke-width:0.5;" x1="51" x2="179" y1="242" y2="242"/><rect fill="none" height="6" style="stroke:#C82930;stroke-width:1.0;" width="6" x="58" y="254.034"/><text fill="#000000" font-family="sans-serif" font-size="14" lengthAdjust="spacing" textLength="91" x="70" y="260.9659">name: IName</text><ellipse cx="61" cy="276.1019" fill="none" rx="3" ry="3" style="stroke:#038048;stroke-width:1.0;"/><text fill="#000000" font-family="sans-serif" font-size="14" lengthAdjust="spacing" textLength="104" x="70" y="280.0339">digger: IDigger</text><ellipse cx="61" cy="295.1698" fill="none" rx="3" ry="3" style="stroke:#038048;stroke-width:1.0;"/><text fill="#000000" font-family="sans-serif" font-size="14" lengthAdjust="spacing" textLength="103" x="70" y="299.1018">breath: IBreath</text><line style="stroke:#181818;stroke-width:0.5;" x1="51" x2="179" y1="307.2038" y2="307.2038"/></g><!--MD5=[d5d7bc467ba7a0813dc5cfd10b0b31e3]
class Worm--><g id="elem_Worm"><rect codeLine="50" fill="#F1F1F1" height="86.1358" id="Worm" rx="2.5" ry="2.5" style="stroke:#181818;stroke-width:0.5;" width="130" x="215" y="219.5"/><ellipse cx="256.1" cy="235.5" fill="#ADD1B2" rx="11" ry="11" style="stroke:#181818;stroke-width:1.0;"/><path d="M256.2094,231.0313 Q255.2875,231.0313 254.5531,231.3438 Q253.8344,231.6563 253.3344,232.25 Q252.8344,232.8281 252.5531,233.7031 Q252.2875,234.5781 252.2875,235.6719 Q252.2875,237.1094 252.725,238.1563 Q253.1781,239.2031 254.0219,239.75 Q254.8813,240.2969 256.1938,240.2969 Q256.975,240.2969 257.6625,240.1719 Q258.3656,240.0313 259.3656,239.7188 L259.3656,241.5938 Q258.5063,241.9219 257.7406,242.0469 Q256.9906,242.1719 255.975,242.1719 Q254.0531,242.1719 252.7406,241.375 Q251.4438,240.5625 250.7875,239.0938 Q250.1313,237.6094 250.1313,235.6406 Q250.1313,234.2188 250.5219,233.0469 Q250.9281,231.8594 251.7094,230.9844 Q252.4906,230.1094 253.6313,229.6406 Q254.7719,229.1563 256.2406,229.1563 Q257.1938,229.1563 258.0844,229.3594 Q258.9906,229.5469 259.9281,230.0156 L259.1,231.7969 Q258.3188,231.4219 257.6625,231.2344 Q257.0063,231.0313 256.2094,231.0313 Z " fill="#000000"/><text fill="#000000" font-family="sans-serif" font-size="14" lengthAdjust="spacing" textLength="40" x="275.9" y="240.932">Worm</text><line style="stroke:#181818;stroke-width:0.5;" x1="216" x2="344" y1="251.5" y2="251.5"/><rect fill="none" height="6" style="stroke:#C82930;stroke-width:1.0;" width="6" x="223" y="263.534"/><text fill="#000000" font-family="sans-serif" font-size="14" lengthAdjust="spacing" textLength="91" x="235" y="270.4659">name: IName</text><ellipse cx="226" cy="285.6019" fill="none" rx="3" ry="3" style="stroke:#038048;stroke-width:1.0;"/><text fill="#000000" font-family="sans-serif" font-size="14" lengthAdjust="spacing" textLength="104" x="235" y="289.5339">digger: IDigger</text><line style="stroke:#181818;stroke-width:0.5;" x1="216" x2="344" y1="297.6358" y2="297.6358"/></g><!--MD5=[fbb341b7a3bace498eb6b2ae3db12849]
class Seal--><g id="elem_Seal"><rect codeLine="55" fill="#F1F1F1" height="143.3396" id="Seal" rx="2.5" ry="2.5" style="stroke:#181818;stroke-width:0.5;" width="129" x="380.5" y="191"/><ellipse cx="426.75" cy="207" fill="#ADD1B2" rx="11" ry="11" style="stroke:#181818;stroke-width:1.0;"/><path d="M426.8594,202.5313 Q425.9375,202.5313 425.2031,202.8438 Q424.4844,203.1563 423.9844,203.75 Q423.4844,204.3281 423.2031,205.2031 Q422.9375,206.0781 422.9375,207.1719 Q422.9375,208.6094 423.375,209.6563 Q423.8281,210.7031 424.6719,211.25 Q425.5313,211.7969 426.8438,211.7969 Q427.625,211.7969 428.3125,211.6719 Q429.0156,211.5313 430.0156,211.2188 L430.0156,213.0938 Q429.1563,213.4219 428.3906,213.5469 Q427.6406,213.6719 426.625,213.6719 Q424.7031,213.6719 423.3906,212.875 Q422.0938,212.0625 421.4375,210.5938 Q420.7813,209.1094 420.7813,207.1406 Q420.7813,205.7188 421.1719,204.5469 Q421.5781,203.3594 422.3594,202.4844 Q423.1406,201.6094 424.2813,201.1406 Q425.4219,200.6563 426.8906,200.6563 Q427.8438,200.6563 428.7344,200.8594 Q429.6406,201.0469 430.5781,201.5156 L429.75,203.2969 Q428.9688,202.9219 428.3125,202.7344 Q427.6563,202.5313 426.8594,202.5313 Z " fill="#000000"/><text fill="#000000" font-family="sans-serif" font-size="14" lengthAdjust="spacing" textLength="28" x="447.25" y="212.432">Seal</text><line style="stroke:#181818;stroke-width:0.5;" x1="381.5" x2="508.5" y1="223" y2="223"/><rect fill="none" height="6" style="stroke:#C82930;stroke-width:1.0;" width="6" x="388.5" y="235.034"/><text fill="#000000" font-family="sans-serif" font-size="14" lengthAdjust="spacing" textLength="91" x="400.5" y="241.9659">name: IName</text><ellipse cx="391.5" cy="257.1019" fill="none" rx="3" ry="3" style="stroke:#038048;stroke-width:1.0;"/><text fill="#000000" font-family="sans-serif" font-size="14" lengthAdjust="spacing" textLength="84" x="400.5" y="261.0339">swim: ISwim</text><ellipse cx="391.5" cy="276.1698" fill="none" rx="3" ry="3" style="stroke:#038048;stroke-width:1.0;"/><text fill="#000000" font-family="sans-serif" font-size="14" lengthAdjust="spacing" textLength="103" x="400.5" y="280.1018">breath: IBreath</text><ellipse cx="391.5" cy="295.2377" fill="none" rx="3" ry="3" style="stroke:#038048;stroke-width:1.0;"/><text fill="#000000" font-family="sans-serif" font-size="14" lengthAdjust="spacing" textLength="87" x="400.5" y="299.1697">crawl: ICrawl</text><ellipse cx="391.5" cy="314.3056" fill="none" rx="3" ry="3" style="stroke:#038048;stroke-width:1.0;"/><text fill="#000000" font-family="sans-serif" font-size="14" lengthAdjust="spacing" textLength="83" x="400.5" y="318.2376">fetch: IFetch</text><line style="stroke:#181818;stroke-width:0.5;" x1="381.5" x2="508.5" y1="326.3396" y2="326.3396"/></g><!--MD5=[c3494489cb2f82461efb5b3f19f17592]
class WildSeal--><g id="elem_WildSeal"><rect codeLine="63" fill="#F1F1F1" height="124.2717" id="WildSeal" rx="2.5" ry="2.5" style="stroke:#181818;stroke-width:0.5;" width="129" x="50.5" y="394"/><ellipse cx="83.05" cy="410" fill="#ADD1B2" rx="11" ry="11" style="stroke:#181818;stroke-width:1.0;"/><path d="M83.1594,405.5313 Q82.2375,405.5313 81.5031,405.8438 Q80.7844,406.1563 80.2844,406.75 Q79.7844,407.3281 79.5031,408.2031 Q79.2375,409.0781 79.2375,410.1719 Q79.2375,411.6094 79.675,412.6563 Q80.1281,413.7031 80.9719,414.25 Q81.8313,414.7969 83.1438,414.7969 Q83.925,414.7969 84.6125,414.6719 Q85.3156,414.5313 86.3156,414.2188 L86.3156,416.0938 Q85.4563,416.4219 84.6906,416.5469 Q83.9406,416.6719 82.925,416.6719 Q81.0031,416.6719 79.6906,415.875 Q78.3938,415.0625 77.7375,413.5938 Q77.0813,412.1094 77.0813,410.1406 Q77.0813,408.7188 77.4719,407.5469 Q77.8781,406.3594 78.6594,405.4844 Q79.4406,404.6094 80.5813,404.1406 Q81.7219,403.6563 83.1906,403.6563 Q84.1438,403.6563 85.0344,403.8594 Q85.9406,404.0469 86.8781,404.5156 L86.05,406.2969 Q85.2688,405.9219 84.6125,405.7344 Q83.9563,405.5313 83.1594,405.5313 Z " fill="#000000"/><text fill="#000000" font-family="sans-serif" font-size="14" lengthAdjust="spacing" textLength="58" x="100.95" y="415.432">WildSeal</text><line style="stroke:#181818;stroke-width:0.5;" x1="51.5" x2="178.5" y1="426" y2="426"/><rect fill="none" height="6" style="stroke:#C82930;stroke-width:1.0;" width="6" x="58.5" y="438.034"/><text fill="#000000" font-family="sans-serif" font-size="14" lengthAdjust="spacing" textLength="91" x="70.5" y="444.9659">name: IName</text><ellipse cx="61.5" cy="460.1019" fill="none" rx="3" ry="3" style="stroke:#038048;stroke-width:1.0;"/><text fill="#000000" font-family="sans-serif" font-size="14" lengthAdjust="spacing" textLength="84" x="70.5" y="464.0339">swim: ISwim</text><ellipse cx="61.5" cy="479.1698" fill="none" rx="3" ry="3" style="stroke:#038048;stroke-width:1.0;"/><text fill="#000000" font-family="sans-serif" font-size="14" lengthAdjust="spacing" textLength="103" x="70.5" y="483.1018">breath: IBreath</text><ellipse cx="61.5" cy="498.2377" fill="none" rx="3" ry="3" style="stroke:#038048;stroke-width:1.0;"/><text fill="#000000" font-family="sans-serif" font-size="14" lengthAdjust="spacing" textLength="87" x="70.5" y="502.1697">crawl: ICrawl</text><line style="stroke:#181818;stroke-width:0.5;" x1="51.5" x2="178.5" y1="510.2717" y2="510.2717"/></g><!--MD5=[f61a7cb1b575c9665950495d20136258]
reverse link ISwim to IFetch--><g id="link_ISwim_IFetch"><path codeLine="70" d="M935,124.1 C935,157.78 935,200 935,228.69 " fill="none" id="ISwim-backto-IFetch" style="stroke:#181818;stroke-width:1.0;"/><polygon fill="none" points="928,124.43,935,104.43,942,124.43,928,124.43" style="stroke:#181818;stroke-width:1.0;"/></g><!--MD5=[40d194e4ad5ec132aa6aae3e644d4437]
reverse link IBreath to IMobile--><g id="link_IBreath_IMobile"><path codeLine="71" d="M788.01,124.37 C786.91,154.49 785.56,191.38 784.54,219.3 " fill="none" id="IBreath-backto-IMobile" style="stroke:#181818;stroke-width:1.0;"/><polygon fill="none" points="781.02,124.16,788.74,104.43,795.01,124.67,781.02,124.16" style="stroke:#181818;stroke-width:1.0;"/></g><!--MD5=[1c6da1b744472bb56f1d17ed6d41b632]
reverse link ICrawl to IMobile--><g id="link_ICrawl_IMobile"><path codeLine="72" d="M680.29,120 C702.69,150.86 731.11,190.01 752.37,219.3 " fill="none" id="ICrawl-backto-IMobile" style="stroke:#181818;stroke-width:1.0;"/><polygon fill="none" points="674.87,124.44,668.78,104.14,686.2,116.22,674.87,124.44" style="stroke:#181818;stroke-width:1.0;"/></g><!--MD5=[c3ee6a7d1ff4242dc0a578660ffa9663]
reverse link ICrawl to IDigger--><g id="link_ICrawl_IDigger"><path codeLine="73" d="M644,124.1 C644,157.78 644,200 644,228.69 " fill="none" id="ICrawl-backto-IDigger" style="stroke:#181818;stroke-width:1.0;"/><polygon fill="none" points="637,124.43,644,104.43,651,124.43,637,124.43" style="stroke:#181818;stroke-width:1.0;"/></g><!--MD5=[b5bbc2918aea5c36c60e2558f08cf284]
@startuml

interface IName{
    +name: string
    +numberOfAppendages: uint
}

interface ICrawl{
    +crawl(): void
}

interface IBreath{
    +breath(): void
}

interface ISwim{
    +swim(): void
}

interface IFetch{
    +fetch(): void
}

interface IDigger{
    +dig(): void
}

interface IMobile{
    +walk(): void
    +run(): void
}

class Dog{
    -name: IName
    +mobile: IMobile
    +fetch: IFetch
    +digger: IDigger
}

class Cat{
    -name: IName
    +mobile: IMobile
}

class Mole{
    -name: IName
    +digger: IDigger
    +breath: IBreath
}

class Worm{
    -name: IName
    +digger: IDigger
}

class Seal{
    -name: IName
    +swim: ISwim
    +breath: IBreath
    +crawl: ICrawl
    +fetch: IFetch
}

class WildSeal{
    -name: IName
    +swim: ISwim
    +breath: IBreath
    +crawl: ICrawl
}

ISwim <|- - IFetch
IBreath <|- - IMobile
ICrawl <|- - IMobile
ICrawl <|- - IDigger

@enduml

PlantUML version 1.2022.7(Mon Aug 22 18:01:30 BST 2022)
(GPL source distribution)
Java Runtime: OpenJDK Runtime Environment
JVM: OpenJDK 64-Bit Server VM
Default Encoding: UTF-8
Language: en
Country: GB
--></g></svg>