<?xml version="1.0" encoding="UTF-8" standalone="no"?><svg xmlns="http://www.w3.org/2000/svg" xmlns:xlink="http://www.w3.org/1999/xlink" contentStyleType="text/css" height="468px" preserveAspectRatio="none" style="width:740px;height:468px;background:#FFFFFF;" version="1.1" viewBox="0 0 740 468" width="740px" zoomAndPan="magnify"><defs/><g><!--MD5=[7fd4401f5c5cb0e3d029c879cad30c04]
class Animal--><g id="elem_Animal"><rect codeLine="2" fill="#F1F1F1" height="86.1358" id="Animal" rx="2.5" ry="2.5" style="stroke:#181818;stroke-width:0.5;" width="216" x="276" y="7"/><ellipse cx="356.25" cy="23" fill="#ADD1B2" rx="11" ry="11" style="stroke:#181818;stroke-width:1.0;"/><path d="M356.3594,18.5313 Q355.4375,18.5313 354.7031,18.8438 Q353.9844,19.1563 353.4844,19.75 Q352.9844,20.3281 352.7031,21.2031 Q352.4375,22.0781 352.4375,23.1719 Q352.4375,24.6094 352.875,25.6563 Q353.3281,26.7031 354.1719,27.25 Q355.0313,27.7969 356.3438,27.7969 Q357.125,27.7969 357.8125,27.6719 Q358.5156,27.5313 359.5156,27.2188 L359.5156,29.0938 Q358.6563,29.4219 357.8906,29.5469 Q357.1406,29.6719 356.125,29.6719 Q354.2031,29.6719 352.8906,28.875 Q351.5938,28.0625 350.9375,26.5938 Q350.2813,25.1094 350.2813,23.1406 Q350.2813,21.7188 350.6719,20.5469 Q351.0781,19.3594 351.8594,18.4844 Q352.6406,17.6094 353.7813,17.1406 Q354.9219,16.6563 356.3906,16.6563 Q357.3438,16.6563 358.2344,16.8594 Q359.1406,17.0469 360.0781,17.5156 L359.25,19.2969 Q358.4688,18.9219 357.8125,18.7344 Q357.1563,18.5313 356.3594,18.5313 Z " fill="#000000"/><text fill="#000000" font-family="sans-serif" font-size="14" lengthAdjust="spacing" textLength="47" x="376.75" y="28.432">Animal</text><line style="stroke:#181818;stroke-width:0.5;" x1="277" x2="491" y1="39" y2="39"/><rect fill="none" height="6" style="stroke:#C82930;stroke-width:1.0;" width="6" x="284" y="51.034"/><text fill="#000000" font-family="sans-serif" font-size="14" lengthAdjust="spacing" textLength="86" x="296" y="57.9659">name: string</text><rect fill="none" height="6" style="stroke:#C82930;stroke-width:1.0;" width="6" x="284" y="70.1019"/><text fill="#000000" font-family="sans-serif" font-size="14" lengthAdjust="spacing" textLength="190" x="296" y="77.0339">numberOfAppendages: uint</text><line style="stroke:#181818;stroke-width:0.5;" x1="277" x2="491" y1="85.1358" y2="85.1358"/></g><!--MD5=[454ed48f055567edc734f170f61b4daf]
class Dog--><g id="elem_Dog"><rect codeLine="7" fill="#F1F1F1" height="181.4754" id="Dog" rx="2.5" ry="2.5" style="stroke:#181818;stroke-width:0.5;" width="134" x="7" y="153"/><ellipse cx="56.25" cy="169" fill="#ADD1B2" rx="11" ry="11" style="stroke:#181818;stroke-width:1.0;"/><path d="M56.3594,164.5313 Q55.4375,164.5313 54.7031,164.8438 Q53.9844,165.1563 53.4844,165.75 Q52.9844,166.3281 52.7031,167.2031 Q52.4375,168.0781 52.4375,169.1719 Q52.4375,170.6094 52.875,171.6563 Q53.3281,172.7031 54.1719,173.25 Q55.0313,173.7969 56.3438,173.7969 Q57.125,173.7969 57.8125,173.6719 Q58.5156,173.5313 59.5156,173.2188 L59.5156,175.0938 Q58.6563,175.4219 57.8906,175.5469 Q57.1406,175.6719 56.125,175.6719 Q54.2031,175.6719 52.8906,174.875 Q51.5938,174.0625 50.9375,172.5938 Q50.2813,171.1094 50.2813,169.1406 Q50.2813,167.7188 50.6719,166.5469 Q51.0781,165.3594 51.8594,164.4844 Q52.6406,163.6094 53.7813,163.1406 Q54.9219,162.6563 56.3906,162.6563 Q57.3438,162.6563 58.2344,162.8594 Q59.1406,163.0469 60.0781,163.5156 L59.25,165.2969 Q58.4688,164.9219 57.8125,164.7344 Q57.1563,164.5313 56.3594,164.5313 Z " fill="#000000"/><text fill="#000000" font-family="sans-serif" font-size="14" lengthAdjust="spacing" textLength="27" x="76.75" y="174.432">Dog</text><line style="stroke:#181818;stroke-width:0.5;" x1="8" x2="140" y1="185" y2="185"/><line style="stroke:#181818;stroke-width:0.5;" x1="8" x2="140" y1="193" y2="193"/><ellipse cx="18" cy="208.034" fill="#84BE84" rx="3" ry="3" style="stroke:#038048;stroke-width:1.0;"/><text fill="#000000" font-family="sans-serif" font-size="14" lengthAdjust="spacing" textLength="74" x="27" y="211.9659">walk(): void</text><ellipse cx="18" cy="227.1019" fill="#84BE84" rx="3" ry="3" style="stroke:#038048;stroke-width:1.0;"/><text fill="#000000" font-family="sans-serif" font-size="14" lengthAdjust="spacing" textLength="68" x="27" y="231.0339">run(): void</text><ellipse cx="18" cy="246.1698" fill="#84BE84" rx="3" ry="3" style="stroke:#038048;stroke-width:1.0;"/><text fill="#000000" font-family="sans-serif" font-size="14" lengthAdjust="spacing" textLength="80" x="27" y="250.1018">crawl(): void</text><ellipse cx="18" cy="265.2377" fill="#84BE84" rx="3" ry="3" style="stroke:#038048;stroke-width:1.0;"/><text fill="#000000" font-family="sans-serif" font-size="14" lengthAdjust="spacing" textLength="66" x="27" y="269.1697">dig(): void</text><ellipse cx="18" cy="284.3056" fill="#84BE84" rx="3" ry="3" style="stroke:#038048;stroke-width:1.0;"/><text fill="#000000" font-family="sans-serif" font-size="14" lengthAdjust="spacing" textLength="89" x="27" y="288.2376">breath(): void</text><ellipse cx="18" cy="303.3735" fill="#84BE84" rx="3" ry="3" style="stroke:#038048;stroke-width:1.0;"/><text fill="#000000" font-family="sans-serif" font-size="14" lengthAdjust="spacing" textLength="79" x="27" y="307.3055">swim(): void</text><ellipse cx="18" cy="322.4415" fill="#84BE84" rx="3" ry="3" style="stroke:#038048;stroke-width:1.0;"/><text fill="#000000" font-family="sans-serif" font-size="14" lengthAdjust="spacing" textLength="108" x="27" y="326.3734">playFetch(): void</text></g><!--MD5=[fbb341b7a3bace498eb6b2ae3db12849]
class Seal--><g id="elem_Seal"><rect codeLine="17" fill="#F1F1F1" height="67.0679" id="Seal" rx="2.5" ry="2.5" style="stroke:#181818;stroke-width:0.5;" width="134" x="167" y="394"/><ellipse cx="215.75" cy="410" fill="#ADD1B2" rx="11" ry="11" style="stroke:#181818;stroke-width:1.0;"/><path d="M215.8594,405.5313 Q214.9375,405.5313 214.2031,405.8438 Q213.4844,406.1563 212.9844,406.75 Q212.4844,407.3281 212.2031,408.2031 Q211.9375,409.0781 211.9375,410.1719 Q211.9375,411.6094 212.375,412.6563 Q212.8281,413.7031 213.6719,414.25 Q214.5313,414.7969 215.8438,414.7969 Q216.625,414.7969 217.3125,414.6719 Q218.0156,414.5313 219.0156,414.2188 L219.0156,416.0938 Q218.1563,416.4219 217.3906,416.5469 Q216.6406,416.6719 215.625,416.6719 Q213.7031,416.6719 212.3906,415.875 Q211.0938,415.0625 210.4375,413.5938 Q209.7813,412.1094 209.7813,410.1406 Q209.7813,408.7188 210.1719,407.5469 Q210.5781,406.3594 211.3594,405.4844 Q212.1406,404.6094 213.2813,404.1406 Q214.4219,403.6563 215.8906,403.6563 Q216.8438,403.6563 217.7344,403.8594 Q218.6406,404.0469 219.5781,404.5156 L218.75,406.2969 Q217.9688,405.9219 217.3125,405.7344 Q216.6563,405.5313 215.8594,405.5313 Z " fill="#000000"/><text fill="#000000" font-family="sans-serif" font-size="14" lengthAdjust="spacing" textLength="28" x="236.25" y="415.432">Seal</text><line style="stroke:#181818;stroke-width:0.5;" x1="168" x2="300" y1="426" y2="426"/><line style="stroke:#181818;stroke-width:0.5;" x1="168" x2="300" y1="434" y2="434"/><ellipse cx="178" cy="449.034" fill="#84BE84" rx="3" ry="3" style="stroke:#038048;stroke-width:1.0;"/><text fill="#000000" font-family="sans-serif" font-size="14" lengthAdjust="spacing" textLength="108" x="187" y="452.9659">playFetch(): void</text></g><!--MD5=[c3494489cb2f82461efb5b3f19f17592]
class WildSeal--><g id="elem_WildSeal"><rect codeLine="21" fill="#F1F1F1" height="105.2038" id="WildSeal" rx="2.5" ry="2.5" style="stroke:#181818;stroke-width:0.5;" width="115" x="176.5" y="191"/><ellipse cx="202.75" cy="207" fill="#ADD1B2" rx="11" ry="11" style="stroke:#181818;stroke-width:1.0;"/><path d="M202.8594,202.5313 Q201.9375,202.5313 201.2031,202.8438 Q200.4844,203.1563 199.9844,203.75 Q199.4844,204.3281 199.2031,205.2031 Q198.9375,206.0781 198.9375,207.1719 Q198.9375,208.6094 199.375,209.6563 Q199.8281,210.7031 200.6719,211.25 Q201.5313,211.7969 202.8438,211.7969 Q203.625,211.7969 204.3125,211.6719 Q205.0156,211.5313 206.0156,211.2188 L206.0156,213.0938 Q205.1563,213.4219 204.3906,213.5469 Q203.6406,213.6719 202.625,213.6719 Q200.7031,213.6719 199.3906,212.875 Q198.0938,212.0625 197.4375,210.5938 Q196.7813,209.1094 196.7813,207.1406 Q196.7813,205.7188 197.1719,204.5469 Q197.5781,203.3594 198.3594,202.4844 Q199.1406,201.6094 200.2813,201.1406 Q201.4219,200.6563 202.8906,200.6563 Q203.8438,200.6563 204.7344,200.8594 Q205.6406,201.0469 206.5781,201.5156 L205.75,203.2969 Q204.9688,202.9219 204.3125,202.7344 Q203.6563,202.5313 202.8594,202.5313 Z " fill="#000000"/><text fill="#000000" font-family="sans-serif" font-size="14" lengthAdjust="spacing" textLength="58" x="219.25" y="212.432">WildSeal</text><line style="stroke:#181818;stroke-width:0.5;" x1="177.5" x2="290.5" y1="223" y2="223"/><line style="stroke:#181818;stroke-width:0.5;" x1="177.5" x2="290.5" y1="231" y2="231"/><ellipse cx="187.5" cy="246.034" fill="#84BE84" rx="3" ry="3" style="stroke:#038048;stroke-width:1.0;"/><text fill="#000000" font-family="sans-serif" font-size="14" lengthAdjust="spacing" textLength="80" x="196.5" y="249.9659">crawl(): void</text><ellipse cx="187.5" cy="265.1019" fill="#84BE84" rx="3" ry="3" style="stroke:#038048;stroke-width:1.0;"/><text fill="#000000" font-family="sans-serif" font-size="14" lengthAdjust="spacing" textLength="89" x="196.5" y="269.0339">breath(): void</text><ellipse cx="187.5" cy="284.1698" fill="#84BE84" rx="3" ry="3" style="stroke:#038048;stroke-width:1.0;"/><text fill="#000000" font-family="sans-serif" font-size="14" lengthAdjust="spacing" textLength="79" x="196.5" y="288.1018">swim(): void</text></g><!--MD5=[46c97a57589ae0235a90fa1765a6f2f5]
class Mole--><g id="elem_Mole"><rect codeLine="27" fill="#F1F1F1" height="105.2038" id="Mole" rx="2.5" ry="2.5" style="stroke:#181818;stroke-width:0.5;" width="115" x="326.5" y="191"/><ellipse cx="364" cy="207" fill="#ADD1B2" rx="11" ry="11" style="stroke:#181818;stroke-width:1.0;"/><path d="M364.1094,202.5313 Q363.1875,202.5313 362.4531,202.8438 Q361.7344,203.1563 361.2344,203.75 Q360.7344,204.3281 360.4531,205.2031 Q360.1875,206.0781 360.1875,207.1719 Q360.1875,208.6094 360.625,209.6563 Q361.0781,210.7031 361.9219,211.25 Q362.7813,211.7969 364.0938,211.7969 Q364.875,211.7969 365.5625,211.6719 Q366.2656,211.5313 367.2656,211.2188 L367.2656,213.0938 Q366.4063,213.4219 365.6406,213.5469 Q364.8906,213.6719 363.875,213.6719 Q361.9531,213.6719 360.6406,212.875 Q359.3438,212.0625 358.6875,210.5938 Q358.0313,209.1094 358.0313,207.1406 Q358.0313,205.7188 358.4219,204.5469 Q358.8281,203.3594 359.6094,202.4844 Q360.3906,201.6094 361.5313,201.1406 Q362.6719,200.6563 364.1406,200.6563 Q365.0938,200.6563 365.9844,200.8594 Q366.8906,201.0469 367.8281,201.5156 L367,203.2969 Q366.2188,202.9219 365.5625,202.7344 Q364.9063,202.5313 364.1094,202.5313 Z " fill="#000000"/><text fill="#000000" font-family="sans-serif" font-size="14" lengthAdjust="spacing" textLength="33" x="383" y="212.432">Mole</text><line style="stroke:#181818;stroke-width:0.5;" x1="327.5" x2="440.5" y1="223" y2="223"/><line style="stroke:#181818;stroke-width:0.5;" x1="327.5" x2="440.5" y1="231" y2="231"/><ellipse cx="337.5" cy="246.034" fill="#84BE84" rx="3" ry="3" style="stroke:#038048;stroke-width:1.0;"/><text fill="#000000" font-family="sans-serif" font-size="14" lengthAdjust="spacing" textLength="80" x="346.5" y="249.9659">crawl(): void</text><ellipse cx="337.5" cy="265.1019" fill="#84BE84" rx="3" ry="3" style="stroke:#038048;stroke-width:1.0;"/><text fill="#000000" font-family="sans-serif" font-size="14" lengthAdjust="spacing" textLength="66" x="346.5" y="269.0339">dig(): void</text><ellipse cx="337.5" cy="284.1698" fill="#84BE84" rx="3" ry="3" style="stroke:#038048;stroke-width:1.0;"/><text fill="#000000" font-family="sans-serif" font-size="14" lengthAdjust="spacing" textLength="89" x="346.5" y="288.1018">breath(): void</text></g><!--MD5=[8d10b9619f233caeee54837354dd5717]
class Cat--><g id="elem_Cat"><rect codeLine="33" fill="#F1F1F1" height="124.2717" id="Cat" rx="2.5" ry="2.5" style="stroke:#181818;stroke-width:0.5;" width="115" x="476.5" y="181.5"/><ellipse cx="518.95" cy="197.5" fill="#ADD1B2" rx="11" ry="11" style="stroke:#181818;stroke-width:1.0;"/><path d="M519.0594,193.0313 Q518.1375,193.0313 517.4031,193.3438 Q516.6844,193.6563 516.1844,194.25 Q515.6844,194.8281 515.4031,195.7031 Q515.1375,196.5781 515.1375,197.6719 Q515.1375,199.1094 515.575,200.1563 Q516.0281,201.2031 516.8719,201.75 Q517.7313,202.2969 519.0438,202.2969 Q519.825,202.2969 520.5125,202.1719 Q521.2156,202.0313 522.2156,201.7188 L522.2156,203.5938 Q521.3563,203.9219 520.5906,204.0469 Q519.8406,204.1719 518.825,204.1719 Q516.9031,204.1719 515.5906,203.375 Q514.2938,202.5625 513.6375,201.0938 Q512.9813,199.6094 512.9813,197.6406 Q512.9813,196.2188 513.3719,195.0469 Q513.7781,193.8594 514.5594,192.9844 Q515.3406,192.1094 516.4813,191.6406 Q517.6219,191.1563 519.0906,191.1563 Q520.0438,191.1563 520.9344,191.3594 Q521.8406,191.5469 522.7781,192.0156 L521.95,193.7969 Q521.1688,193.4219 520.5125,193.2344 Q519.8563,193.0313 519.0594,193.0313 Z " fill="#000000"/><text fill="#000000" font-family="sans-serif" font-size="14" lengthAdjust="spacing" textLength="22" x="539.05" y="202.932">Cat</text><line style="stroke:#181818;stroke-width:0.5;" x1="477.5" x2="590.5" y1="213.5" y2="213.5"/><line style="stroke:#181818;stroke-width:0.5;" x1="477.5" x2="590.5" y1="221.5" y2="221.5"/><ellipse cx="487.5" cy="236.534" fill="#84BE84" rx="3" ry="3" style="stroke:#038048;stroke-width:1.0;"/><text fill="#000000" font-family="sans-serif" font-size="14" lengthAdjust="spacing" textLength="74" x="496.5" y="240.4659">walk(): void</text><ellipse cx="487.5" cy="255.6019" fill="#84BE84" rx="3" ry="3" style="stroke:#038048;stroke-width:1.0;"/><text fill="#000000" font-family="sans-serif" font-size="14" lengthAdjust="spacing" textLength="68" x="496.5" y="259.5339">run(): void</text><ellipse cx="487.5" cy="274.6698" fill="#84BE84" rx="3" ry="3" style="stroke:#038048;stroke-width:1.0;"/><text fill="#000000" font-family="sans-serif" font-size="14" lengthAdjust="spacing" textLength="80" x="496.5" y="278.6018">crawl(): void</text><ellipse cx="487.5" cy="293.7377" fill="#84BE84" rx="3" ry="3" style="stroke:#038048;stroke-width:1.0;"/><text fill="#000000" font-family="sans-serif" font-size="14" lengthAdjust="spacing" textLength="89" x="496.5" y="297.6697">breath(): void</text></g><!--MD5=[d5d7bc467ba7a0813dc5cfd10b0b31e3]
class Worm--><g id="elem_Worm"><rect codeLine="40" fill="#F1F1F1" height="86.1358" id="Worm" rx="2.5" ry="2.5" style="stroke:#181818;stroke-width:0.5;" width="106" x="627" y="200.5"/><ellipse cx="657.3" cy="216.5" fill="#ADD1B2" rx="11" ry="11" style="stroke:#181818;stroke-width:1.0;"/><path d="M657.4094,212.0313 Q656.4875,212.0313 655.7531,212.3438 Q655.0344,212.6563 654.5344,213.25 Q654.0344,213.8281 653.7531,214.7031 Q653.4875,215.5781 653.4875,216.6719 Q653.4875,218.1094 653.925,219.1563 Q654.3781,220.2031 655.2219,220.75 Q656.0813,221.2969 657.3938,221.2969 Q658.175,221.2969 658.8625,221.1719 Q659.5656,221.0313 660.5656,220.7188 L660.5656,222.5938 Q659.7063,222.9219 658.9406,223.0469 Q658.1906,223.1719 657.175,223.1719 Q655.2531,223.1719 653.9406,222.375 Q652.6438,221.5625 651.9875,220.0938 Q651.3313,218.6094 651.3313,216.6406 Q651.3313,215.2188 651.7219,214.0469 Q652.1281,212.8594 652.9094,211.9844 Q653.6906,211.1094 654.8313,210.6406 Q655.9719,210.1563 657.4406,210.1563 Q658.3938,210.1563 659.2844,210.3594 Q660.1906,210.5469 661.1281,211.0156 L660.3,212.7969 Q659.5188,212.4219 658.8625,212.2344 Q658.2063,212.0313 657.4094,212.0313 Z " fill="#000000"/><text fill="#000000" font-family="sans-serif" font-size="14" lengthAdjust="spacing" textLength="40" x="674.7" y="221.932">Worm</text><line style="stroke:#181818;stroke-width:0.5;" x1="628" x2="732" y1="232.5" y2="232.5"/><line style="stroke:#181818;stroke-width:0.5;" x1="628" x2="732" y1="240.5" y2="240.5"/><ellipse cx="638" cy="255.534" fill="#84BE84" rx="3" ry="3" style="stroke:#038048;stroke-width:1.0;"/><text fill="#000000" font-family="sans-serif" font-size="14" lengthAdjust="spacing" textLength="80" x="647" y="259.4659">crawl(): void</text><ellipse cx="638" cy="274.6019" fill="#84BE84" rx="3" ry="3" style="stroke:#038048;stroke-width:1.0;"/><text fill="#000000" font-family="sans-serif" font-size="14" lengthAdjust="spacing" textLength="66" x="647" y="278.5339">dig(): void</text></g><!--MD5=[5037e5108ae860e34ac250b7d2b84c09]
reverse link Animal to Dog--><g id="link_Animal_Dog"><path codeLine="45" d="M256.28,98.64 C223.19,113.68 188.58,131.96 159,153 C152.98,157.29 147.03,162.04 141.26,167.06 " fill="none" id="Animal-backto-Dog" style="stroke:#181818;stroke-width:1.0;"/><polygon fill="none" points="253.03,92.42,274.15,90.77,258.67,105.23,253.03,92.42" style="stroke:#181818;stroke-width:1.0;"/></g><!--MD5=[4139838dbfe80f78f4be30c0bd7ad261]
reverse link Animal to Mole--><g id="link_Animal_Mole"><path codeLine="46" d="M384,114.2 C384,139 384,167.1 384,190.67 " fill="none" id="Animal-backto-Mole" style="stroke:#181818;stroke-width:1.0;"/><polygon fill="none" points="377,114.54,384,94.54,391,114.54,377,114.54" style="stroke:#181818;stroke-width:1.0;"/></g><!--MD5=[29afdbb58cca2b953b6b88505d3bed3f]
reverse link Animal to Cat--><g id="link_Animal_Cat"><path codeLine="47" d="M429.94,109.64 C447.72,132.36 468.09,158.36 486.07,181.31 " fill="none" id="Animal-backto-Cat" style="stroke:#181818;stroke-width:1.0;"/><polygon fill="none" points="424.67,114.28,417.85,94.22,435.7,105.65,424.67,114.28" style="stroke:#181818;stroke-width:1.0;"/></g><!--MD5=[3c6202b33de307532af3ab70f3a2b831]
reverse link Animal to Worm--><g id="link_Animal_Worm"><path codeLine="48" d="M511.79,96.34 C545.25,111.48 580.03,130.38 609,153 C625.73,166.06 640.88,183.84 652.84,200.11 " fill="none" id="Animal-backto-Worm" style="stroke:#181818;stroke-width:1.0;"/><polygon fill="none" points="509.23,102.86,493.69,88.46,514.82,90.02,509.23,102.86" style="stroke:#181818;stroke-width:1.0;"/></g><!--MD5=[b6e4f227b67f6818466c48ce3fd007c1]
reverse link Animal to WildSeal--><g id="link_Animal_WildSeal"><path codeLine="49" d="M338.01,109.71 C317.76,135.56 294.18,165.67 274.6,190.67 " fill="none" id="Animal-backto-WildSeal" style="stroke:#181818;stroke-width:1.0;"/><polygon fill="none" points="332.3,105.65,350.15,94.22,343.33,114.28,332.3,105.65" style="stroke:#181818;stroke-width:1.0;"/></g><!--MD5=[6e70283bbc77b8adb7909e94c9830e6b]
reverse link WildSeal to Seal--><g id="link_WildSeal_Seal"><path codeLine="50" d="M234,317.62 C234,343.98 234,372.44 234,393.64 " fill="none" id="WildSeal-backto-Seal" style="stroke:#181818;stroke-width:1.0;"/><polygon fill="none" points="227,317.68,234,297.68,241,317.68,227,317.68" style="stroke:#181818;stroke-width:1.0;"/></g><!--MD5=[36c68821d6a25ae9e7c41a7d9006cafc]
@startuml

class Animal {
    -name: string
    -numberOfAppendages: uint
}

class Dog {
    +walk(): void
    +run(): void
    +crawl(): void
    +dig(): void
    +breath(): void
    +swim(): void
    +playFetch(): void
}

class Seal {
    +playFetch(): void
}

class WildSeal {
    +crawl(): void
    +breath(): void
    +swim(): void
}

class Mole {
    +crawl(): void
    +dig(): void
    +breath(): void
}

class Cat {
    +walk(): void
    +run(): void
    +crawl(): void
    +breath(): void
}

class Worm {
    +crawl(): void
    +dig(): void
}

Animal <|- - Dog
Animal <|- - Mole
Animal <|- - Cat
Animal <|- - Worm
Animal <|- - WildSeal
WildSeal <|- - Seal

@enduml

PlantUML version 1.2022.7(Mon Aug 22 18:01:30 BST 2022)
(GPL source distribution)
Java Runtime: OpenJDK Runtime Environment
JVM: OpenJDK 64-Bit Server VM
Default Encoding: UTF-8
Language: en
Country: GB
--></g></svg>