<?xml version="1.0" encoding="UTF-8" standalone="no"?><svg xmlns="http://www.w3.org/2000/svg" xmlns:xlink="http://www.w3.org/1999/xlink" contentStyleType="text/css" height="265px" preserveAspectRatio="none" style="width:176px;height:265px;background:#FFFFFF;" version="1.1" viewBox="0 0 176 265" width="176px" zoomAndPan="magnify"><defs/><g><!--MD5=[7fd4401f5c5cb0e3d029c879cad30c04]
class Animal--><g id="elem_Animal"><rect codeLine="2" fill="#F1F1F1" height="143.3396" id="Animal" rx="2.5" ry="2.5" style="stroke:#181818;stroke-width:0.5;" width="162" x="7" y="7"/><ellipse cx="60.25" cy="23" fill="#ADD1B2" rx="11" ry="11" style="stroke:#181818;stroke-width:1.0;"/><path d="M60.3594,18.5313 Q59.4375,18.5313 58.7031,18.8438 Q57.9844,19.1563 57.4844,19.75 Q56.9844,20.3281 56.7031,21.2031 Q56.4375,22.0781 56.4375,23.1719 Q56.4375,24.6094 56.875,25.6563 Q57.3281,26.7031 58.1719,27.25 Q59.0313,27.7969 60.3438,27.7969 Q61.125,27.7969 61.8125,27.6719 Q62.5156,27.5313 63.5156,27.2188 L63.5156,29.0938 Q62.6563,29.4219 61.8906,29.5469 Q61.1406,29.6719 60.125,29.6719 Q58.2031,29.6719 56.8906,28.875 Q55.5938,28.0625 54.9375,26.5938 Q54.2813,25.1094 54.2813,23.1406 Q54.2813,21.7188 54.6719,20.5469 Q55.0781,19.3594 55.8594,18.4844 Q56.6406,17.6094 57.7813,17.1406 Q58.9219,16.6563 60.3906,16.6563 Q61.3438,16.6563 62.2344,16.8594 Q63.1406,17.0469 64.0781,17.5156 L63.25,19.2969 Q62.4688,18.9219 61.8125,18.7344 Q61.1563,18.5313 60.3594,18.5313 Z " fill="#000000"/><text fill="#000000" font-family="sans-serif" font-size="14" lengthAdjust="spacing" textLength="47" x="80.75" y="28.432">Animal</text><line style="stroke:#181818;stroke-width:0.5;" x1="8" x2="168" y1="39" y2="39"/><rect fill="none" height="6" style="stroke:#C82930;stroke-width:1.0;" width="6" x="15" y="51.034"/><text fill="#000000" font-family="sans-serif" font-size="14" lengthAdjust="spacing" textLength="86" x="27" y="57.9659">name: string</text><rect fill="none" height="6" style="stroke:#C82930;stroke-width:1.0;" width="6" x="15" y="70.1019"/><text fill="#000000" font-family="sans-serif" font-size="14" lengthAdjust="spacing" textLength="136" x="27" y="77.0339">numberOfLegs: uint</text><line style="stroke:#181818;stroke-width:0.5;" x1="8" x2="168" y1="85.1358" y2="85.1358"/><ellipse cx="18" cy="100.1698" fill="#84BE84" rx="3" ry="3" style="stroke:#038048;stroke-width:1.0;"/><text fill="#000000" font-family="sans-serif" font-size="14" lengthAdjust="spacing" textLength="74" x="27" y="104.1018">walk(): void</text><ellipse cx="18" cy="119.2377" fill="#84BE84" rx="3" ry="3" style="stroke:#038048;stroke-width:1.0;"/><text fill="#000000" font-family="sans-serif" font-size="14" lengthAdjust="spacing" textLength="68" x="27" y="123.1697">run(): void</text><ellipse cx="18" cy="138.3056" fill="#84BE84" rx="3" ry="3" style="stroke:#038048;stroke-width:1.0;"/><text fill="#000000" font-family="sans-serif" font-size="14" lengthAdjust="spacing" textLength="80" x="27" y="142.2376">crawl(): void</text></g><!--MD5=[454ed48f055567edc734f170f61b4daf]
class Dog--><g id="elem_Dog"><rect codeLine="10" fill="#F1F1F1" height="48" id="Dog" rx="2.5" ry="2.5" style="stroke:#181818;stroke-width:0.5;" width="59" x="12.5" y="210"/><ellipse cx="27.5" cy="226" fill="#ADD1B2" rx="11" ry="11" style="stroke:#181818;stroke-width:1.0;"/><path d="M27.6094,221.5313 Q26.6875,221.5313 25.9531,221.8438 Q25.2344,222.1563 24.7344,222.75 Q24.2344,223.3281 23.9531,224.2031 Q23.6875,225.0781 23.6875,226.1719 Q23.6875,227.6094 24.125,228.6563 Q24.5781,229.7031 25.4219,230.25 Q26.2813,230.7969 27.5938,230.7969 Q28.375,230.7969 29.0625,230.6719 Q29.7656,230.5313 30.7656,230.2188 L30.7656,232.0938 Q29.9063,232.4219 29.1406,232.5469 Q28.3906,232.6719 27.375,232.6719 Q25.4531,232.6719 24.1406,231.875 Q22.8438,231.0625 22.1875,229.5938 Q21.5313,228.1094 21.5313,226.1406 Q21.5313,224.7188 21.9219,223.5469 Q22.3281,222.3594 23.1094,221.4844 Q23.8906,220.6094 25.0313,220.1406 Q26.1719,219.6563 27.6406,219.6563 Q28.5938,219.6563 29.4844,219.8594 Q30.3906,220.0469 31.3281,220.5156 L30.5,222.2969 Q29.7188,221.9219 29.0625,221.7344 Q28.4063,221.5313 27.6094,221.5313 Z " fill="#000000"/><text fill="#000000" font-family="sans-serif" font-size="14" lengthAdjust="spacing" textLength="27" x="41.5" y="231.432">Dog</text><line style="stroke:#181818;stroke-width:0.5;" x1="13.5" x2="70.5" y1="242" y2="242"/><line style="stroke:#181818;stroke-width:0.5;" x1="13.5" x2="70.5" y1="250" y2="250"/></g><!--MD5=[8d10b9619f233caeee54837354dd5717]
class Cat--><g id="elem_Cat"><rect codeLine="14" fill="#F1F1F1" height="48" id="Cat" rx="2.5" ry="2.5" style="stroke:#181818;stroke-width:0.5;" width="54" x="107" y="210"/><ellipse cx="122" cy="226" fill="#ADD1B2" rx="11" ry="11" style="stroke:#181818;stroke-width:1.0;"/><path d="M122.1094,221.5313 Q121.1875,221.5313 120.4531,221.8438 Q119.7344,222.1563 119.2344,222.75 Q118.7344,223.3281 118.4531,224.2031 Q118.1875,225.0781 118.1875,226.1719 Q118.1875,227.6094 118.625,228.6563 Q119.0781,229.7031 119.9219,230.25 Q120.7813,230.7969 122.0938,230.7969 Q122.875,230.7969 123.5625,230.6719 Q124.2656,230.5313 125.2656,230.2188 L125.2656,232.0938 Q124.4063,232.4219 123.6406,232.5469 Q122.8906,232.6719 121.875,232.6719 Q119.9531,232.6719 118.6406,231.875 Q117.3438,231.0625 116.6875,229.5938 Q116.0313,228.1094 116.0313,226.1406 Q116.0313,224.7188 116.4219,223.5469 Q116.8281,222.3594 117.6094,221.4844 Q118.3906,220.6094 119.5313,220.1406 Q120.6719,219.6563 122.1406,219.6563 Q123.0938,219.6563 123.9844,219.8594 Q124.8906,220.0469 125.8281,220.5156 L125,222.2969 Q124.2188,221.9219 123.5625,221.7344 Q122.9063,221.5313 122.1094,221.5313 Z " fill="#000000"/><text fill="#000000" font-family="sans-serif" font-size="14" lengthAdjust="spacing" textLength="22" x="136" y="231.432">Cat</text><line style="stroke:#181818;stroke-width:0.5;" x1="108" x2="160" y1="242" y2="242"/><line style="stroke:#181818;stroke-width:0.5;" x1="108" x2="160" y1="250" y2="250"/></g><!--MD5=[5037e5108ae860e34ac250b7d2b84c09]
reverse link Animal to Dog--><g id="link_Animal_Dog"><path codeLine="18" d="M60.61,170.91 C56.32,185.23 52.24,198.84 49,209.66 " fill="none" id="Animal-backto-Dog" style="stroke:#181818;stroke-width:1.0;"/><polygon fill="none" points="53.87,169.01,66.32,151.86,67.28,173.03,53.87,169.01" style="stroke:#181818;stroke-width:1.0;"/></g><!--MD5=[29afdbb58cca2b953b6b88505d3bed3f]
reverse link Animal to Cat--><g id="link_Animal_Cat"><path codeLine="19" d="M115.39,170.91 C119.68,185.23 123.76,198.84 127,209.66 " fill="none" id="Animal-backto-Cat" style="stroke:#181818;stroke-width:1.0;"/><polygon fill="none" points="108.72,173.03,109.68,151.86,122.13,169.01,108.72,173.03" style="stroke:#181818;stroke-width:1.0;"/></g><!--MD5=[e815ad8c7635dc8e1d00b8fce0329cec]
@startuml

class Animal {
    -name: string
    -numberOfLegs: uint
    +walk(): void
    +run(): void
    +crawl(): void
}

class Dog {

}

class Cat {

}

Animal <|- - Dog
Animal <|- - Cat

@enduml

PlantUML version 1.2022.7(Mon Aug 22 18:01:30 BST 2022)
(GPL source distribution)
Java Runtime: OpenJDK Runtime Environment
JVM: OpenJDK 64-Bit Server VM
Default Encoding: UTF-8
Language: en
Country: GB
--></g></svg>