<?xml version="1.0" encoding="UTF-8" standalone="no"?><svg xmlns="http://www.w3.org/2000/svg" xmlns:xlink="http://www.w3.org/1999/xlink" contentStyleType="text/css" height="373px" preserveAspectRatio="none" style="width:1054px;height:373px;background:#FFFFFF;" version="1.1" viewBox="0 0 1054 373" width="1054px" zoomAndPan="magnify"><defs/><g><!--MD5=[1f03944efe3334577da183320bd0cef9]
class IName--><g id="elem_IName"><rect codeLine="2" fill="#F1F1F1" height="86.1358" id="IName" rx="2.5" ry="2.5" style="stroke:#181818;stroke-width:0.5;" width="216" x="7" y="7"/><ellipse cx="89.75" cy="23" fill="#B4A7E5" rx="11" ry="11" style="stroke:#181818;stroke-width:1.0;"/><path d="M91.8438,29.5 L86.9375,29.5 L86.9375,28.125 L88.3594,27.8125 L88.3594,18.5313 L86.9375,18.1875 L86.9375,16.8281 L91.8438,16.8281 L91.8438,18.1875 L90.4219,18.5313 L90.4219,27.8125 L91.8438,28.125 L91.8438,29.5 Z " fill="#000000"/><text fill="#000000" font-family="sans-serif" font-size="14" font-style="italic" lengthAdjust="spacing" textLength="42" x="110.25" y="28.432">IName</text><line style="stroke:#181818;stroke-width:0.5;" x1="8" x2="222" y1="39" y2="39"/><ellipse cx="18" cy="54.034" fill="none" rx="3" ry="3" style="stroke:#038048;stroke-width:1.0;"/><text fill="#000000" font-family="sans-serif" font-size="14" lengthAdjust="spacing" textLength="86" x="27" y="57.9659">name: string</text><ellipse cx="18" cy="73.1019" fill="none" rx="3" ry="3" style="stroke:#038048;stroke-width:1.0;"/><text fill="#000000" font-family="sans-serif" font-size="14" lengthAdjust="spacing" textLength="190" x="27" y="77.0339">numberOfAppendages: uint</text><line style="stroke:#181818;stroke-width:0.5;" x1="8" x2="222" y1="85.1358" y2="85.1358"/></g><!--MD5=[2425b479da93eea62ee9411840bbe199]
class ICrawl--><g id="elem_ICrawl"><rect codeLine="7" fill="#F1F1F1" height="67.0679" id="ICrawl" rx="2.5" ry="2.5" style="stroke:#181818;stroke-width:0.5;" width="106" x="471" y="16.5"/><ellipse cx="500.85" cy="32.5" fill="#B4A7E5" rx="11" ry="11" style="stroke:#181818;stroke-width:1.0;"/><path d="M502.9438,39 L498.0375,39 L498.0375,37.625 L499.4594,37.3125 L499.4594,28.0313 L498.0375,27.6875 L498.0375,26.3281 L502.9438,26.3281 L502.9438,27.6875 L501.5219,28.0313 L501.5219,37.3125 L502.9438,37.625 L502.9438,39 Z " fill="#000000"/><text fill="#000000" font-family="sans-serif" font-size="14" font-style="italic" lengthAdjust="spacing" textLength="41" x="518.15" y="37.932">ICrawl</text><line style="stroke:#181818;stroke-width:0.5;" x1="472" x2="576" y1="48.5" y2="48.5"/><line style="stroke:#181818;stroke-width:0.5;" x1="472" x2="576" y1="56.5" y2="56.5"/><ellipse cx="482" cy="71.534" fill="#84BE84" rx="3" ry="3" style="stroke:#038048;stroke-width:1.0;"/><text fill="#000000" font-family="sans-serif" font-size="14" lengthAdjust="spacing" textLength="80" x="491" y="75.4659">crawl(): void</text></g><!--MD5=[aef8f0136d47cdce57b2d5444eecc2a5]
class IBreath--><g id="elem_IBreath"><rect codeLine="11" fill="#F1F1F1" height="67.0679" id="IBreath" rx="2.5" ry="2.5" style="stroke:#181818;stroke-width:0.5;" width="115" x="626.5" y="16.5"/><ellipse cx="657.7" cy="32.5" fill="#B4A7E5" rx="11" ry="11" style="stroke:#181818;stroke-width:1.0;"/><path d="M659.7938,39 L654.8875,39 L654.8875,37.625 L656.3094,37.3125 L656.3094,28.0313 L654.8875,27.6875 L654.8875,26.3281 L659.7938,26.3281 L659.7938,27.6875 L658.3719,28.0313 L658.3719,37.3125 L659.7938,37.625 L659.7938,39 Z " fill="#000000"/><text fill="#000000" font-family="sans-serif" font-size="14" font-style="italic" lengthAdjust="spacing" textLength="47" x="675.3" y="37.932">IBreath</text><line style="stroke:#181818;stroke-width:0.5;" x1="627.5" x2="740.5" y1="48.5" y2="48.5"/><line style="stroke:#181818;stroke-width:0.5;" x1="627.5" x2="740.5" y1="56.5" y2="56.5"/><ellipse cx="637.5" cy="71.534" fill="#84BE84" rx="3" ry="3" style="stroke:#038048;stroke-width:1.0;"/><text fill="#000000" font-family="sans-serif" font-size="14" lengthAdjust="spacing" textLength="89" x="646.5" y="75.4659">breath(): void</text></g><!--MD5=[ce228ceba3313844580eb3510a265beb]
class ISwim--><g id="elem_ISwim"><rect codeLine="15" fill="#F1F1F1" height="67.0679" id="ISwim" rx="2.5" ry="2.5" style="stroke:#181818;stroke-width:0.5;" width="105" x="258.5" y="16.5"/><ellipse cx="289.25" cy="32.5" fill="#B4A7E5" rx="11" ry="11" style="stroke:#181818;stroke-width:1.0;"/><path d="M291.3438,39 L286.4375,39 L286.4375,37.625 L287.8594,37.3125 L287.8594,28.0313 L286.4375,27.6875 L286.4375,26.3281 L291.3438,26.3281 L291.3438,27.6875 L289.9219,28.0313 L289.9219,37.3125 L291.3438,37.625 L291.3438,39 Z " fill="#000000"/><text fill="#000000" font-family="sans-serif" font-size="14" font-style="italic" lengthAdjust="spacing" textLength="38" x="306.75" y="37.932">ISwim</text><line style="stroke:#181818;stroke-width:0.5;" x1="259.5" x2="362.5" y1="48.5" y2="48.5"/><line style="stroke:#181818;stroke-width:0.5;" x1="259.5" x2="362.5" y1="56.5" y2="56.5"/><ellipse cx="269.5" cy="71.534" fill="#84BE84" rx="3" ry="3" style="stroke:#038048;stroke-width:1.0;"/><text fill="#000000" font-family="sans-serif" font-size="14" lengthAdjust="spacing" textLength="79" x="278.5" y="75.4659">swim(): void</text></g><!--MD5=[738c1a881f896961c6a9b0af1949a3bc]
class IFetch--><g id="elem_IFetch"><rect codeLine="19" fill="#F1F1F1" height="67.0679" id="IFetch" rx="2.5" ry="2.5" style="stroke:#181818;stroke-width:0.5;" width="104" x="207" y="162.5"/><ellipse cx="237.3" cy="178.5" fill="#B4A7E5" rx="11" ry="11" style="stroke:#181818;stroke-width:1.0;"/><path d="M239.3938,185 L234.4875,185 L234.4875,183.625 L235.9094,183.3125 L235.9094,174.0313 L234.4875,173.6875 L234.4875,172.3281 L239.3938,172.3281 L239.3938,173.6875 L237.9719,174.0313 L237.9719,183.3125 L239.3938,183.625 L239.3938,185 Z " fill="#000000"/><text fill="#000000" font-family="sans-serif" font-size="14" font-style="italic" lengthAdjust="spacing" textLength="38" x="254.7" y="183.932">IFetch</text><line style="stroke:#181818;stroke-width:0.5;" x1="208" x2="310" y1="194.5" y2="194.5"/><line style="stroke:#181818;stroke-width:0.5;" x1="208" x2="310" y1="202.5" y2="202.5"/><ellipse cx="218" cy="217.534" fill="#84BE84" rx="3" ry="3" style="stroke:#038048;stroke-width:1.0;"/><text fill="#000000" font-family="sans-serif" font-size="14" lengthAdjust="spacing" textLength="78" x="227" y="221.4659">fetch(): void</text></g><!--MD5=[9b7d1659afa3add92508730b6cb6c99d]
class IDigger--><g id="elem_IDigger"><rect codeLine="23" fill="#F1F1F1" height="67.0679" id="IDigger" rx="2.5" ry="2.5" style="stroke:#181818;stroke-width:0.5;" width="92" x="786" y="162.5"/><ellipse cx="806.85" cy="178.5" fill="#B4A7E5" rx="11" ry="11" style="stroke:#181818;stroke-width:1.0;"/><path d="M808.9438,185 L804.0375,185 L804.0375,183.625 L805.4594,183.3125 L805.4594,174.0313 L804.0375,173.6875 L804.0375,172.3281 L808.9438,172.3281 L808.9438,173.6875 L807.5219,174.0313 L807.5219,183.3125 L808.9438,183.625 L808.9438,185 Z " fill="#000000"/><text fill="#000000" font-family="sans-serif" font-size="14" font-style="italic" lengthAdjust="spacing" textLength="47" x="822.15" y="183.932">IDigger</text><line style="stroke:#181818;stroke-width:0.5;" x1="787" x2="877" y1="194.5" y2="194.5"/><line style="stroke:#181818;stroke-width:0.5;" x1="787" x2="877" y1="202.5" y2="202.5"/><ellipse cx="797" cy="217.534" fill="#84BE84" rx="3" ry="3" style="stroke:#038048;stroke-width:1.0;"/><text fill="#000000" font-family="sans-serif" font-size="14" lengthAdjust="spacing" textLength="66" x="806" y="221.4659">dig(): void</text></g><!--MD5=[477f6168a827414e69ab4a56faa0a169]
class IMobile--><g id="elem_IMobile"><rect codeLine="27" fill="#F1F1F1" height="86.1358" id="IMobile" rx="2.5" ry="2.5" style="stroke:#181818;stroke-width:0.5;" width="100" x="641" y="153"/><ellipse cx="665" cy="169" fill="#B4A7E5" rx="11" ry="11" style="stroke:#181818;stroke-width:1.0;"/><path d="M667.0938,175.5 L662.1875,175.5 L662.1875,174.125 L663.6094,173.8125 L663.6094,164.5313 L662.1875,164.1875 L662.1875,162.8281 L667.0938,162.8281 L667.0938,164.1875 L665.6719,164.5313 L665.6719,173.8125 L667.0938,174.125 L667.0938,175.5 Z " fill="#000000"/><text fill="#000000" font-family="sans-serif" font-size="14" font-style="italic" lengthAdjust="spacing" textLength="48" x="681" y="174.432">IMobile</text><line style="stroke:#181818;stroke-width:0.5;" x1="642" x2="740" y1="185" y2="185"/><line style="stroke:#181818;stroke-width:0.5;" x1="642" x2="740" y1="193" y2="193"/><ellipse cx="652" cy="208.034" fill="#84BE84" rx="3" ry="3" style="stroke:#038048;stroke-width:1.0;"/><text fill="#000000" font-family="sans-serif" font-size="14" lengthAdjust="spacing" textLength="74" x="661" y="211.9659">walk(): void</text><ellipse cx="652" cy="227.1019" fill="#84BE84" rx="3" ry="3" style="stroke:#038048;stroke-width:1.0;"/><text fill="#000000" font-family="sans-serif" font-size="14" lengthAdjust="spacing" textLength="68" x="661" y="231.0339">run(): void</text></g><!--MD5=[454ed48f055567edc734f170f61b4daf]
class Dog--><g id="elem_Dog"><rect codeLine="32" fill="#F1F1F1" height="67.0679" id="Dog" rx="2.5" ry="2.5" style="stroke:#181818;stroke-width:0.5;" width="117" x="626.5" y="299"/><ellipse cx="667.6" cy="315" fill="#ADD1B2" rx="11" ry="11" style="stroke:#181818;stroke-width:1.0;"/><path d="M667.7094,310.5313 Q666.7875,310.5313 666.0531,310.8438 Q665.3344,311.1563 664.8344,311.75 Q664.3344,312.3281 664.0531,313.2031 Q663.7875,314.0781 663.7875,315.1719 Q663.7875,316.6094 664.225,317.6563 Q664.6781,318.7031 665.5219,319.25 Q666.3813,319.7969 667.6938,319.7969 Q668.475,319.7969 669.1625,319.6719 Q669.8656,319.5313 670.8656,319.2188 L670.8656,321.0938 Q670.0063,321.4219 669.2406,321.5469 Q668.4906,321.6719 667.475,321.6719 Q665.5531,321.6719 664.2406,320.875 Q662.9438,320.0625 662.2875,318.5938 Q661.6313,317.1094 661.6313,315.1406 Q661.6313,313.7188 662.0219,312.5469 Q662.4281,311.3594 663.2094,310.4844 Q663.9906,309.6094 665.1313,309.1406 Q666.2719,308.6563 667.7406,308.6563 Q668.6938,308.6563 669.5844,308.8594 Q670.4906,309.0469 671.4281,309.5156 L670.6,311.2969 Q669.8188,310.9219 669.1625,310.7344 Q668.5063,310.5313 667.7094,310.5313 Z " fill="#000000"/><text fill="#000000" font-family="sans-serif" font-size="14" lengthAdjust="spacing" textLength="27" x="687.4" y="320.432">Dog</text><line style="stroke:#181818;stroke-width:0.5;" x1="627.5" x2="742.5" y1="331" y2="331"/><rect fill="none" height="6" style="stroke:#C82930;stroke-width:1.0;" width="6" x="634.5" y="343.034"/><text fill="#000000" font-family="sans-serif" font-size="14" lengthAdjust="spacing" textLength="91" x="646.5" y="349.9659">name: IName</text><line style="stroke:#181818;stroke-width:0.5;" x1="627.5" x2="742.5" y1="358.0679" y2="358.0679"/></g><!--MD5=[8d10b9619f233caeee54837354dd5717]
class Cat--><g id="elem_Cat"><rect codeLine="36" fill="#F1F1F1" height="67.0679" id="Cat" rx="2.5" ry="2.5" style="stroke:#181818;stroke-width:0.5;" width="117" x="474.5" y="299"/><ellipse cx="517.85" cy="315" fill="#ADD1B2" rx="11" ry="11" style="stroke:#181818;stroke-width:1.0;"/><path d="M517.9594,310.5313 Q517.0375,310.5313 516.3031,310.8438 Q515.5844,311.1563 515.0844,311.75 Q514.5844,312.3281 514.3031,313.2031 Q514.0375,314.0781 514.0375,315.1719 Q514.0375,316.6094 514.475,317.6563 Q514.9281,318.7031 515.7719,319.25 Q516.6313,319.7969 517.9438,319.7969 Q518.725,319.7969 519.4125,319.6719 Q520.1156,319.5313 521.1156,319.2188 L521.1156,321.0938 Q520.2563,321.4219 519.4906,321.5469 Q518.7406,321.6719 517.725,321.6719 Q515.8031,321.6719 514.4906,320.875 Q513.1938,320.0625 512.5375,318.5938 Q511.8813,317.1094 511.8813,315.1406 Q511.8813,313.7188 512.2719,312.5469 Q512.6781,311.3594 513.4594,310.4844 Q514.2406,309.6094 515.3813,309.1406 Q516.5219,308.6563 517.9906,308.6563 Q518.9438,308.6563 519.8344,308.8594 Q520.7406,309.0469 521.6781,309.5156 L520.85,311.2969 Q520.0688,310.9219 519.4125,310.7344 Q518.7563,310.5313 517.9594,310.5313 Z " fill="#000000"/><text fill="#000000" font-family="sans-serif" font-size="14" lengthAdjust="spacing" textLength="22" x="538.15" y="320.432">Cat</text><line style="stroke:#181818;stroke-width:0.5;" x1="475.5" x2="590.5" y1="331" y2="331"/><rect fill="none" height="6" style="stroke:#C82930;stroke-width:1.0;" width="6" x="482.5" y="343.034"/><text fill="#000000" font-family="sans-serif" font-size="14" lengthAdjust="spacing" textLength="91" x="494.5" y="349.9659">name: IName</text><line style="stroke:#181818;stroke-width:0.5;" x1="475.5" x2="590.5" y1="358.0679" y2="358.0679"/></g><!--MD5=[46c97a57589ae0235a90fa1765a6f2f5]
class Mole--><g id="elem_Mole"><rect codeLine="40" fill="#F1F1F1" height="67.0679" id="Mole" rx="2.5" ry="2.5" style="stroke:#181818;stroke-width:0.5;" width="117" x="930.5" y="299"/><ellipse cx="968.9" cy="315" fill="#ADD1B2" rx="11" ry="11" style="stroke:#181818;stroke-width:1.0;"/><path d="M969.0094,310.5313 Q968.0875,310.5313 967.3531,310.8438 Q966.6344,311.1563 966.1344,311.75 Q965.6344,312.3281 965.3531,313.2031 Q965.0875,314.0781 965.0875,315.1719 Q965.0875,316.6094 965.525,317.6563 Q965.9781,318.7031 966.8219,319.25 Q967.6813,319.7969 968.9938,319.7969 Q969.775,319.7969 970.4625,319.6719 Q971.1656,319.5313 972.1656,319.2188 L972.1656,321.0938 Q971.3063,321.4219 970.5406,321.5469 Q969.7906,321.6719 968.775,321.6719 Q966.8531,321.6719 965.5406,320.875 Q964.2438,320.0625 963.5875,318.5938 Q962.9313,317.1094 962.9313,315.1406 Q962.9313,313.7188 963.3219,312.5469 Q963.7281,311.3594 964.5094,310.4844 Q965.2906,309.6094 966.4313,309.1406 Q967.5719,308.6563 969.0406,308.6563 Q969.9938,308.6563 970.8844,308.8594 Q971.7906,309.0469 972.7281,309.5156 L971.9,311.2969 Q971.1188,310.9219 970.4625,310.7344 Q969.8063,310.5313 969.0094,310.5313 Z " fill="#000000"/><text fill="#000000" font-family="sans-serif" font-size="14" lengthAdjust="spacing" textLength="33" x="988.1" y="320.432">Mole</text><line style="stroke:#181818;stroke-width:0.5;" x1="931.5" x2="1046.5" y1="331" y2="331"/><rect fill="none" height="6" style="stroke:#C82930;stroke-width:1.0;" width="6" x="938.5" y="343.034"/><text fill="#000000" font-family="sans-serif" font-size="14" lengthAdjust="spacing" textLength="91" x="950.5" y="349.9659">name: IName</text><line style="stroke:#181818;stroke-width:0.5;" x1="931.5" x2="1046.5" y1="358.0679" y2="358.0679"/></g><!--MD5=[d5d7bc467ba7a0813dc5cfd10b0b31e3]
class Worm--><g id="elem_Worm"><rect codeLine="44" fill="#F1F1F1" height="67.0679" id="Worm" rx="2.5" ry="2.5" style="stroke:#181818;stroke-width:0.5;" width="117" x="778.5" y="299"/><ellipse cx="813.75" cy="315" fill="#ADD1B2" rx="11" ry="11" style="stroke:#181818;stroke-width:1.0;"/><path d="M813.8594,310.5313 Q812.9375,310.5313 812.2031,310.8438 Q811.4844,311.1563 810.9844,311.75 Q810.4844,312.3281 810.2031,313.2031 Q809.9375,314.0781 809.9375,315.1719 Q809.9375,316.6094 810.375,317.6563 Q810.8281,318.7031 811.6719,319.25 Q812.5313,319.7969 813.8438,319.7969 Q814.625,319.7969 815.3125,319.6719 Q816.0156,319.5313 817.0156,319.2188 L817.0156,321.0938 Q816.1563,321.4219 815.3906,321.5469 Q814.6406,321.6719 813.625,321.6719 Q811.7031,321.6719 810.3906,320.875 Q809.0938,320.0625 808.4375,318.5938 Q807.7813,317.1094 807.7813,315.1406 Q807.7813,313.7188 808.1719,312.5469 Q808.5781,311.3594 809.3594,310.4844 Q810.1406,309.6094 811.2813,309.1406 Q812.4219,308.6563 813.8906,308.6563 Q814.8438,308.6563 815.7344,308.8594 Q816.6406,309.0469 817.5781,309.5156 L816.75,311.2969 Q815.9688,310.9219 815.3125,310.7344 Q814.6563,310.5313 813.8594,310.5313 Z " fill="#000000"/><text fill="#000000" font-family="sans-serif" font-size="14" lengthAdjust="spacing" textLength="40" x="832.25" y="320.432">Worm</text><line style="stroke:#181818;stroke-width:0.5;" x1="779.5" x2="894.5" y1="331" y2="331"/><rect fill="none" height="6" style="stroke:#C82930;stroke-width:1.0;" width="6" x="786.5" y="343.034"/><text fill="#000000" font-family="sans-serif" font-size="14" lengthAdjust="spacing" textLength="91" x="798.5" y="349.9659">name: IName</text><line style="stroke:#181818;stroke-width:0.5;" x1="779.5" x2="894.5" y1="358.0679" y2="358.0679"/></g><!--MD5=[fbb341b7a3bace498eb6b2ae3db12849]
class Seal--><g id="elem_Seal"><rect codeLine="48" fill="#F1F1F1" height="67.0679" id="Seal" rx="2.5" ry="2.5" style="stroke:#181818;stroke-width:0.5;" width="117" x="322.5" y="299"/><ellipse cx="363.15" cy="315" fill="#ADD1B2" rx="11" ry="11" style="stroke:#181818;stroke-width:1.0;"/><path d="M363.2594,310.5313 Q362.3375,310.5313 361.6031,310.8438 Q360.8844,311.1563 360.3844,311.75 Q359.8844,312.3281 359.6031,313.2031 Q359.3375,314.0781 359.3375,315.1719 Q359.3375,316.6094 359.775,317.6563 Q360.2281,318.7031 361.0719,319.25 Q361.9313,319.7969 363.2438,319.7969 Q364.025,319.7969 364.7125,319.6719 Q365.4156,319.5313 366.4156,319.2188 L366.4156,321.0938 Q365.5563,321.4219 364.7906,321.5469 Q364.0406,321.6719 363.025,321.6719 Q361.1031,321.6719 359.7906,320.875 Q358.4938,320.0625 357.8375,318.5938 Q357.1813,317.1094 357.1813,315.1406 Q357.1813,313.7188 357.5719,312.5469 Q357.9781,311.3594 358.7594,310.4844 Q359.5406,309.6094 360.6813,309.1406 Q361.8219,308.6563 363.2906,308.6563 Q364.2438,308.6563 365.1344,308.8594 Q366.0406,309.0469 366.9781,309.5156 L366.15,311.2969 Q365.3688,310.9219 364.7125,310.7344 Q364.0563,310.5313 363.2594,310.5313 Z " fill="#000000"/><text fill="#000000" font-family="sans-serif" font-size="14" lengthAdjust="spacing" textLength="28" x="382.85" y="320.432">Seal</text><line style="stroke:#181818;stroke-width:0.5;" x1="323.5" x2="438.5" y1="331" y2="331"/><rect fill="none" height="6" style="stroke:#C82930;stroke-width:1.0;" width="6" x="330.5" y="343.034"/><text fill="#000000" font-family="sans-serif" font-size="14" lengthAdjust="spacing" textLength="91" x="342.5" y="349.9659">name: IName</text><line style="stroke:#181818;stroke-width:0.5;" x1="323.5" x2="438.5" y1="358.0679" y2="358.0679"/></g><!--MD5=[c3494489cb2f82461efb5b3f19f17592]
class WildSeal--><g id="elem_WildSeal"><rect codeLine="52" fill="#F1F1F1" height="67.0679" id="WildSeal" rx="2.5" ry="2.5" style="stroke:#181818;stroke-width:0.5;" width="117" x="346.5" y="162.5"/><ellipse cx="373.65" cy="178.5" fill="#ADD1B2" rx="11" ry="11" style="stroke:#181818;stroke-width:1.0;"/><path d="M373.7594,174.0313 Q372.8375,174.0313 372.1031,174.3438 Q371.3844,174.6563 370.8844,175.25 Q370.3844,175.8281 370.1031,176.7031 Q369.8375,177.5781 369.8375,178.6719 Q369.8375,180.1094 370.275,181.1563 Q370.7281,182.2031 371.5719,182.75 Q372.4313,183.2969 373.7438,183.2969 Q374.525,183.2969 375.2125,183.1719 Q375.9156,183.0313 376.9156,182.7188 L376.9156,184.5938 Q376.0563,184.9219 375.2906,185.0469 Q374.5406,185.1719 373.525,185.1719 Q371.6031,185.1719 370.2906,184.375 Q368.9938,183.5625 368.3375,182.0938 Q367.6813,180.6094 367.6813,178.6406 Q367.6813,177.2188 368.0719,176.0469 Q368.4781,174.8594 369.2594,173.9844 Q370.0406,173.1094 371.1813,172.6406 Q372.3219,172.1563 373.7906,172.1563 Q374.7438,172.1563 375.6344,172.3594 Q376.5406,172.5469 377.4781,173.0156 L376.65,174.7969 Q375.8688,174.4219 375.2125,174.2344 Q374.5563,174.0313 373.7594,174.0313 Z " fill="#000000"/><text fill="#000000" font-family="sans-serif" font-size="14" lengthAdjust="spacing" textLength="58" x="390.35" y="183.932">WildSeal</text><line style="stroke:#181818;stroke-width:0.5;" x1="347.5" x2="462.5" y1="194.5" y2="194.5"/><rect fill="none" height="6" style="stroke:#C82930;stroke-width:1.0;" width="6" x="354.5" y="206.534"/><text fill="#000000" font-family="sans-serif" font-size="14" lengthAdjust="spacing" textLength="91" x="366.5" y="213.4659">name: IName</text><line style="stroke:#181818;stroke-width:0.5;" x1="347.5" x2="462.5" y1="221.5679" y2="221.5679"/></g><!--MD5=[f61a7cb1b575c9665950495d20136258]
reverse link ISwim to IFetch--><g id="link_ISwim_IFetch"><path codeLine="56" d="M291.91,103.87 C284.82,123.5 276.99,145.17 270.75,162.45 " fill="none" id="ISwim-backto-IFetch" style="stroke:#181818;stroke-width:1.0;"/><polygon fill="none" points="285.31,101.53,298.69,85.1,298.48,106.29,285.31,101.53" style="stroke:#181818;stroke-width:1.0;"/></g><!--MD5=[40d194e4ad5ec132aa6aae3e644d4437]
reverse link IBreath to IMobile--><g id="link_IBreath_IMobile"><path codeLine="57" d="M686.63,105.09 C687.39,120.8 688.22,137.73 688.94,152.61 " fill="none" id="IBreath-backto-IMobile" style="stroke:#181818;stroke-width:1.0;"/><polygon fill="none" points="679.64,105.5,685.66,85.19,693.62,104.82,679.64,105.5" style="stroke:#181818;stroke-width:1.0;"/></g><!--MD5=[1c6da1b744472bb56f1d17ed6d41b632]
reverse link ICrawl to IMobile--><g id="link_ICrawl_IMobile"><path codeLine="58" d="M578.01,97.57 C598.53,115.27 621.78,135.32 641.84,152.61 " fill="none" id="ICrawl-backto-IMobile" style="stroke:#181818;stroke-width:1.0;"/><polygon fill="none" points="573.62,103.03,563.04,84.66,582.76,92.42,573.62,103.03" style="stroke:#181818;stroke-width:1.0;"/></g><!--MD5=[c3ee6a7d1ff4242dc0a578660ffa9663]
reverse link ICrawl to IDigger--><g id="link_ICrawl_IDigger"><path codeLine="59" d="M596.39,87.24 C600.64,89.22 604.87,91.16 609,93 C674.57,122.26 694.39,121.68 759,153 C767.82,157.27 777.02,162.19 785.8,167.11 " fill="none" id="ICrawl-backto-IDigger" style="stroke:#181818;stroke-width:1.0;"/><polygon fill="none" points="593.6,93.67,578.57,78.73,599.63,81.03,593.6,93.67" style="stroke:#181818;stroke-width:1.0;"/></g><!--MD5=[7c2b2f08e99fe276ef25da2176f92e76]
reverse link IMobile to Dog--><g id="link_IMobile_Dog"><path codeLine="61" d="M688.17,260.35 C687.58,273.68 686.98,287.22 686.46,298.85 " fill="none" id="IMobile-backto-Dog" style="stroke:#181818;stroke-width:1.0;"/><polygon fill="none" points="681.17,260.37,689.05,240.7,695.15,260.99,681.17,260.37" style="stroke:#181818;stroke-width:1.0;"/></g><!--MD5=[6383029b7d236a681156bef1b90c9452]
reverse link IFetch to Dog--><g id="link_IFetch_Dog"><path codeLine="62" d="M329.5,237.72 C451.61,283.35 493.75,262.39 609,299 C614.61,300.78 620.37,302.83 626.09,305 " fill="none" id="IFetch-backto-Dog" style="stroke:#181818;stroke-width:1.0;"/><polygon fill="none" points="327.12,244.3,311.03,230.52,332.2,231.26,327.12,244.3" style="stroke:#181818;stroke-width:1.0;"/></g><!--MD5=[2a309f54259253dedde1cd85b8335721]
reverse link IDigger to Dog--><g id="link_IDigger_Dog"><path codeLine="63" d="M780.22,244.37 C760.59,262.34 738.69,282.38 720.84,298.7 " fill="none" id="IDigger-backto-Dog" style="stroke:#181818;stroke-width:1.0;"/><polygon fill="none" points="775.44,239.26,794.92,230.92,784.89,249.59,775.44,239.26" style="stroke:#181818;stroke-width:1.0;"/></g><!--MD5=[ff5f0e31ed13095fb50a510152ead013]
reverse link IMobile to Cat--><g id="link_IMobile_Cat"><path codeLine="64" d="M625.1,253.1 C606.88,268.61 587.71,284.93 571.61,298.64 " fill="none" id="IMobile-backto-Cat" style="stroke:#181818;stroke-width:1.0;"/><polygon fill="none" points="620.52,247.8,640.29,240.17,629.6,258.46,620.52,247.8" style="stroke:#181818;stroke-width:1.0;"/></g><!--MD5=[e969fd070af155c9b673f3e8cc36c4ce]
reverse link IDigger to Mole--><g id="link_IDigger_Mole"><path codeLine="65" d="M886.67,243.84 C907.8,261.94 931.47,282.21 950.72,298.7 " fill="none" id="IDigger-backto-Mole" style="stroke:#181818;stroke-width:1.0;"/><polygon fill="none" points="882.19,249.21,871.56,230.89,891.3,238.58,882.19,249.21" style="stroke:#181818;stroke-width:1.0;"/></g><!--MD5=[3c5bf3d2c4b32ede402daf352a5eebad]
reverse link IBreath to Mole--><g id="link_IBreath_Mole"><path codeLine="66" d="M761.93,74.76 C805.52,91.16 858.48,116.65 896,153 C938.67,194.33 965.68,259.48 979.01,298.59 " fill="none" id="IBreath-backto-Mole" style="stroke:#181818;stroke-width:1.0;"/><polygon fill="none" points="759.61,81.36,743.13,68.04,764.32,68.18,759.61,81.36" style="stroke:#181818;stroke-width:1.0;"/></g><!--MD5=[fea89703b53af4c6aecd57c72a657d1c]
reverse link IBreath to Seal--><g id="link_IBreath_Seal"><path codeLine="67" d="M647.33,100.81 C616.5,140.8 569.89,196.99 522,239 C496.58,261.3 465.4,282.31 438.82,298.65 " fill="none" id="IBreath-backto-Seal" style="stroke:#181818;stroke-width:1.0;"/><polygon fill="none" points="641.75,96.59,659.42,84.9,652.9,105.06,641.75,96.59" style="stroke:#181818;stroke-width:1.0;"/></g><!--MD5=[61ba7f53ad550dff0b4ce6c8f1102edb]
reverse link ICrawl to Seal--><g id="link_ICrawl_Seal"><path codeLine="68" d="M520.19,105.07 C515.46,144.42 504.83,197.82 481,239 C467.67,262.03 446.75,282.68 427.48,298.6 " fill="none" id="ICrawl-backto-Seal" style="stroke:#181818;stroke-width:1.0;"/><polygon fill="none" points="513.22,104.41,522.2,85.22,527.15,105.83,513.22,104.41" style="stroke:#181818;stroke-width:1.0;"/></g><!--MD5=[96876b9c011feb84b3a1ec9446a4de54]
reverse link IFetch to Seal--><g id="link_IFetch_Seal"><path codeLine="69" d="M303.25,245.79 C319.29,263.47 337,282.99 351.46,298.94 " fill="none" id="IFetch-backto-Seal" style="stroke:#181818;stroke-width:1.0;"/><polygon fill="none" points="298.11,250.54,289.86,231.02,308.48,241.13,298.11,250.54" style="stroke:#181818;stroke-width:1.0;"/></g><!--MD5=[bb2e942c7076022596bc133a9e493c90]
reverse link ISwim to WildSeal--><g id="link_ISwim_WildSeal"><path codeLine="70" d="M344.09,101.68 C357.27,121.88 372.05,144.53 383.75,162.45 " fill="none" id="ISwim-backto-WildSeal" style="stroke:#181818;stroke-width:1.0;"/><polygon fill="none" points="338.23,105.52,333.16,84.94,349.95,97.86,338.23,105.52" style="stroke:#181818;stroke-width:1.0;"/></g><!--MD5=[76db472fe481e1a7d40ecbea4573754d]
reverse link ICrawl to WildSeal--><g id="link_ICrawl_WildSeal"><path codeLine="71" d="M483.4,100.14 C466.39,120.71 447.09,144.07 431.9,162.45 " fill="none" id="ICrawl-backto-WildSeal" style="stroke:#181818;stroke-width:1.0;"/><polygon fill="none" points="477.9,95.8,496.03,84.84,488.69,104.72,477.9,95.8" style="stroke:#181818;stroke-width:1.0;"/></g><!--MD5=[5b787ae9c41db676efd5a7ed1601b15e]
reverse link IBreath to WildSeal--><g id="link_IBreath_WildSeal"><path codeLine="72" d="M607.21,90.63 C561.89,114.02 505.43,143.16 463.69,164.71 " fill="none" id="IBreath-backto-WildSeal" style="stroke:#181818;stroke-width:1.0;"/><polygon fill="none" points="603.86,84.48,624.85,81.53,610.28,96.92,603.86,84.48" style="stroke:#181818;stroke-width:1.0;"/></g><!--MD5=[53c434908506f3f1f9cec1118ef2f4d3]
reverse link IDigger to Worm--><g id="link_IDigger_Worm"><path codeLine="73" d="M834.02,251.28 C834.62,267.43 835.26,284.63 835.79,298.94 " fill="none" id="IDigger-backto-Worm" style="stroke:#181818;stroke-width:1.0;"/><polygon fill="none" points="827.03,251.66,833.28,231.41,841.02,251.14,827.03,251.66" style="stroke:#181818;stroke-width:1.0;"/></g><!--MD5=[b16aeb14d6bdbc5a99af1ca5a4b36ae7]
@startuml

interface IName{
    +name: string
    +numberOfAppendages: uint
}

interface ICrawl{
    +crawl(): void
}

interface IBreath{
    +breath(): void
}

interface ISwim{
    +swim(): void
}

interface IFetch{
    +fetch(): void
}

interface IDigger{
    +dig(): void
}

interface IMobile{
    +walk(): void
    +run(): void
}

class Dog{
    -name: IName
}

class Cat{
    -name: IName
}

class Mole{
    -name: IName
}

class Worm{
    -name: IName
}

class Seal{
    -name: IName
}

class WildSeal{
    -name: IName
}

ISwim <|- - IFetch
IBreath <|- - IMobile
ICrawl <|- - IMobile
ICrawl <|- - IDigger

IMobile <|- - Dog
IFetch <|- - Dog
IDigger <|- - Dog
IMobile <|- - Cat
IDigger <|- - Mole
IBreath <|- - Mole
IBreath <|- - Seal
ICrawl <|- - Seal
IFetch <|- - Seal
ISwim <|- - WildSeal
ICrawl <|- - WildSeal
IBreath <|- - WildSeal
IDigger <|- - Worm

@enduml

PlantUML version 1.2022.7(Mon Aug 22 18:01:30 BST 2022)
(GPL source distribution)
Java Runtime: OpenJDK Runtime Environment
JVM: OpenJDK 64-Bit Server VM
Default Encoding: UTF-8
Language: en
Country: GB
--></g></svg>