<?xml version="1.0" encoding="UTF-8" standalone="no"?><svg xmlns="http://www.w3.org/2000/svg" xmlns:xlink="http://www.w3.org/1999/xlink" contentStyleType="text/css" height="170px" preserveAspectRatio="none" style="width:269px;height:170px;background:#FFFFFF;" version="1.1" viewBox="0 0 269 170" width="269px" zoomAndPan="magnify"><defs/><g><!--MD5=[7fd4401f5c5cb0e3d029c879cad30c04]
class Animal--><g id="elem_Animal"><rect codeLine="2" fill="#F1F1F1" height="48" id="Animal" rx="2.5" ry="2.5" style="stroke:#181818;stroke-width:0.5;" width="79" x="89" y="7"/><ellipse cx="104" cy="23" fill="#ADD1B2" rx="11" ry="11" style="stroke:#181818;stroke-width:1.0;"/><path d="M104.1094,18.5313 Q103.1875,18.5313 102.4531,18.8438 Q101.7344,19.1563 101.2344,19.75 Q100.7344,20.3281 100.4531,21.2031 Q100.1875,22.0781 100.1875,23.1719 Q100.1875,24.6094 100.625,25.6563 Q101.0781,26.7031 101.9219,27.25 Q102.7813,27.7969 104.0938,27.7969 Q104.875,27.7969 105.5625,27.6719 Q106.2656,27.5313 107.2656,27.2188 L107.2656,29.0938 Q106.4063,29.4219 105.6406,29.5469 Q104.8906,29.6719 103.875,29.6719 Q101.9531,29.6719 100.6406,28.875 Q99.3438,28.0625 98.6875,26.5938 Q98.0313,25.1094 98.0313,23.1406 Q98.0313,21.7188 98.4219,20.5469 Q98.8281,19.3594 99.6094,18.4844 Q100.3906,17.6094 101.5313,17.1406 Q102.6719,16.6563 104.1406,16.6563 Q105.0938,16.6563 105.9844,16.8594 Q106.8906,17.0469 107.8281,17.5156 L107,19.2969 Q106.2188,18.9219 105.5625,18.7344 Q104.9063,18.5313 104.1094,18.5313 Z " fill="#000000"/><text fill="#000000" font-family="sans-serif" font-size="14" lengthAdjust="spacing" textLength="47" x="118" y="28.432">Animal</text><line style="stroke:#181818;stroke-width:0.5;" x1="90" x2="167" y1="39" y2="39"/><line style="stroke:#181818;stroke-width:0.5;" x1="90" x2="167" y1="47" y2="47"/></g><!--MD5=[454ed48f055567edc734f170f61b4daf]
class Dog--><g id="elem_Dog"><rect codeLine="6" fill="#F1F1F1" height="48" id="Dog" rx="2.5" ry="2.5" style="stroke:#181818;stroke-width:0.5;" width="59" x="7" y="115"/><ellipse cx="22" cy="131" fill="#ADD1B2" rx="11" ry="11" style="stroke:#181818;stroke-width:1.0;"/><path d="M22.1094,126.5313 Q21.1875,126.5313 20.4531,126.8438 Q19.7344,127.1563 19.2344,127.75 Q18.7344,128.3281 18.4531,129.2031 Q18.1875,130.0781 18.1875,131.1719 Q18.1875,132.6094 18.625,133.6563 Q19.0781,134.7031 19.9219,135.25 Q20.7813,135.7969 22.0938,135.7969 Q22.875,135.7969 23.5625,135.6719 Q24.2656,135.5313 25.2656,135.2188 L25.2656,137.0938 Q24.4063,137.4219 23.6406,137.5469 Q22.8906,137.6719 21.875,137.6719 Q19.9531,137.6719 18.6406,136.875 Q17.3438,136.0625 16.6875,134.5938 Q16.0313,133.1094 16.0313,131.1406 Q16.0313,129.7188 16.4219,128.5469 Q16.8281,127.3594 17.6094,126.4844 Q18.3906,125.6094 19.5313,125.1406 Q20.6719,124.6563 22.1406,124.6563 Q23.0938,124.6563 23.9844,124.8594 Q24.8906,125.0469 25.8281,125.5156 L25,127.2969 Q24.2188,126.9219 23.5625,126.7344 Q22.9063,126.5313 22.1094,126.5313 Z " fill="#000000"/><text fill="#000000" font-family="sans-serif" font-size="14" lengthAdjust="spacing" textLength="27" x="36" y="136.432">Dog</text><line style="stroke:#181818;stroke-width:0.5;" x1="8" x2="65" y1="147" y2="147"/><line style="stroke:#181818;stroke-width:0.5;" x1="8" x2="65" y1="155" y2="155"/></g><!--MD5=[8d10b9619f233caeee54837354dd5717]
class Cat--><g id="elem_Cat"><rect codeLine="10" fill="#F1F1F1" height="48" id="Cat" rx="2.5" ry="2.5" style="stroke:#181818;stroke-width:0.5;" width="54" x="101.5" y="115"/><ellipse cx="116.5" cy="131" fill="#ADD1B2" rx="11" ry="11" style="stroke:#181818;stroke-width:1.0;"/><path d="M116.6094,126.5313 Q115.6875,126.5313 114.9531,126.8438 Q114.2344,127.1563 113.7344,127.75 Q113.2344,128.3281 112.9531,129.2031 Q112.6875,130.0781 112.6875,131.1719 Q112.6875,132.6094 113.125,133.6563 Q113.5781,134.7031 114.4219,135.25 Q115.2813,135.7969 116.5938,135.7969 Q117.375,135.7969 118.0625,135.6719 Q118.7656,135.5313 119.7656,135.2188 L119.7656,137.0938 Q118.9063,137.4219 118.1406,137.5469 Q117.3906,137.6719 116.375,137.6719 Q114.4531,137.6719 113.1406,136.875 Q111.8438,136.0625 111.1875,134.5938 Q110.5313,133.1094 110.5313,131.1406 Q110.5313,129.7188 110.9219,128.5469 Q111.3281,127.3594 112.1094,126.4844 Q112.8906,125.6094 114.0313,125.1406 Q115.1719,124.6563 116.6406,124.6563 Q117.5938,124.6563 118.4844,124.8594 Q119.3906,125.0469 120.3281,125.5156 L119.5,127.2969 Q118.7188,126.9219 118.0625,126.7344 Q117.4063,126.5313 116.6094,126.5313 Z " fill="#000000"/><text fill="#000000" font-family="sans-serif" font-size="14" lengthAdjust="spacing" textLength="22" x="130.5" y="136.432">Cat</text><line style="stroke:#181818;stroke-width:0.5;" x1="102.5" x2="154.5" y1="147" y2="147"/><line style="stroke:#181818;stroke-width:0.5;" x1="102.5" x2="154.5" y1="155" y2="155"/></g><!--MD5=[d5d7bc467ba7a0813dc5cfd10b0b31e3]
class Worm--><g id="elem_Worm"><rect codeLine="14" fill="#F1F1F1" height="48" id="Worm" rx="2.5" ry="2.5" style="stroke:#181818;stroke-width:0.5;" width="72" x="190.5" y="115"/><ellipse cx="205.5" cy="131" fill="#ADD1B2" rx="11" ry="11" style="stroke:#181818;stroke-width:1.0;"/><path d="M205.6094,126.5313 Q204.6875,126.5313 203.9531,126.8438 Q203.2344,127.1563 202.7344,127.75 Q202.2344,128.3281 201.9531,129.2031 Q201.6875,130.0781 201.6875,131.1719 Q201.6875,132.6094 202.125,133.6563 Q202.5781,134.7031 203.4219,135.25 Q204.2813,135.7969 205.5938,135.7969 Q206.375,135.7969 207.0625,135.6719 Q207.7656,135.5313 208.7656,135.2188 L208.7656,137.0938 Q207.9063,137.4219 207.1406,137.5469 Q206.3906,137.6719 205.375,137.6719 Q203.4531,137.6719 202.1406,136.875 Q200.8438,136.0625 200.1875,134.5938 Q199.5313,133.1094 199.5313,131.1406 Q199.5313,129.7188 199.9219,128.5469 Q200.3281,127.3594 201.1094,126.4844 Q201.8906,125.6094 203.0313,125.1406 Q204.1719,124.6563 205.6406,124.6563 Q206.5938,124.6563 207.4844,124.8594 Q208.3906,125.0469 209.3281,125.5156 L208.5,127.2969 Q207.7188,126.9219 207.0625,126.7344 Q206.4063,126.5313 205.6094,126.5313 Z " fill="#000000"/><text fill="#000000" font-family="sans-serif" font-size="14" lengthAdjust="spacing" textLength="40" x="219.5" y="136.432">Worm</text><line style="stroke:#181818;stroke-width:0.5;" x1="191.5" x2="261.5" y1="147" y2="147"/><line style="stroke:#181818;stroke-width:0.5;" x1="191.5" x2="261.5" y1="155" y2="155"/></g><!--MD5=[5037e5108ae860e34ac250b7d2b84c09]
reverse link Animal to Dog--><g id="link_Animal_Dog"><path codeLine="18" d="M94.28,71.43 C81.61,86.03 67.66,102.1 56.64,114.79 " fill="none" id="Animal-backto-Dog" style="stroke:#181818;stroke-width:1.0;"/><polygon fill="none" points="88.92,66.92,107.32,56.41,99.5,76.1,88.92,66.92" style="stroke:#181818;stroke-width:1.0;"/></g><!--MD5=[29afdbb58cca2b953b6b88505d3bed3f]
reverse link Animal to Cat--><g id="link_Animal_Cat"><path codeLine="19" d="M128.5,76.72 C128.5,89.82 128.5,103.62 128.5,114.79 " fill="none" id="Animal-backto-Cat" style="stroke:#181818;stroke-width:1.0;"/><polygon fill="none" points="121.5,76.78,128.5,56.78,135.5,76.78,121.5,76.78" style="stroke:#181818;stroke-width:1.0;"/></g><!--MD5=[3c6202b33de307532af3ab70f3a2b831]
reverse link Animal to Worm--><g id="link_Animal_Worm"><path codeLine="20" d="M164.52,70.96 C178.13,85.68 193.18,101.96 205.04,114.79 " fill="none" id="Animal-backto-Worm" style="stroke:#181818;stroke-width:1.0;"/><polygon fill="none" points="159.47,75.81,151.03,56.37,169.75,66.31,159.47,75.81" style="stroke:#181818;stroke-width:1.0;"/></g><!--MD5=[26ad133b009583ed96cbbff6caa16f7d]
@startuml

class Animal {

}

class Dog {

}

class Cat {

}

class Worm {

}

Animal <|- - Dog
Animal <|- - Cat
Animal <|- - Worm

@enduml

PlantUML version 1.2022.7(Mon Aug 22 18:01:30 BST 2022)
(GPL source distribution)
Java Runtime: OpenJDK Runtime Environment
JVM: OpenJDK 64-Bit Server VM
Default Encoding: UTF-8
Language: en
Country: GB
--></g></svg>